<?xml version="1.0" encoding="UTF-8" standalone="no"?>
<svg
   xmlns:dc="http://purl.org/dc/elements/1.1/"
   xmlns:cc="http://creativecommons.org/ns#"
   xmlns:rdf="http://www.w3.org/1999/02/22-rdf-syntax-ns#"
   xmlns:svg="http://www.w3.org/2000/svg"
   xmlns="http://www.w3.org/2000/svg"
   id="svg8252"
   version="1.1"
   viewBox="0 0 459.06903 320.31946"
   height="320.31946mm"
   width="459.06903mm">
  <defs
     id="defs8246">
    <filter
       height="1.0077819"
       y="-0.0038909474"
       width="1.0262032"
       x="-0.013101606"
       id="filter5900"
       style="color-interpolation-filters:sRGB">
      <feGaussianBlur
         id="feGaussianBlur5902"
         stdDeviation="0.30950837" />
    </filter>
    <filter
       height="1.0085748"
       y="-0.0042874534"
       width="1.0199811"
       x="-0.009990545"
       id="filter5896"
       style="color-interpolation-filters:sRGB">
      <feGaussianBlur
         id="feGaussianBlur5898"
         stdDeviation="0.3806738" />
    </filter>
    <filter
       height="1.0074797"
       y="-0.0037398629"
       width="1.0296611"
       x="-0.01483049"
       id="filter5904"
       style="color-interpolation-filters:sRGB">
      <feGaussianBlur
         id="feGaussianBlur5906"
         stdDeviation="0.1435114" />
    </filter>
  </defs>
  <metadata
     id="metadata8249">
    <rdf:RDF>
      <cc:Work
         rdf:about="">
        <dc:format>image/svg+xml</dc:format>
        <dc:type
           rdf:resource="http://purl.org/dc/dcmitype/StillImage" />
        <dc:title></dc:title>
      </cc:Work>
    </rdf:RDF>
  </metadata>
  <g
     transform="translate(252.96902,-11.35217)"
     id="layer1">
    <path
       id="path5581-0"
       d="M -5.3239599,35.31459 C -34.716893,47.938074 -73.087479,63.453058 -107.72237,80.234152 l 25.100703,12.331457 -23.313453,134.463421 c -4.26395,23.77154 -28.50628,38.50797 -54.14043,54.74587 17.60339,-5.77587 33.7899,-10.65156 49.63303,-14.61481 -8.55276,6.60398 -18.46765,12.79285 -28.60548,19.21469 50.482006,-16.56371 89.322113,-25.74791 141.7802011,-27.12928 -3.26506146,-1.40819 -6.1304106,-2.94514 -8.6113647,-4.59537 h 3.6273169 c 4.5264981,2.89431 10.3400049,4.5993 16.9785087,4.5993 H 123.20846 c 17.53233,0 33.50315,-11.88201 36.02367,-26.20122 L 187.49449,72.490252 c 2.52055,-14.319245 -9.26762,-26.201236 -26.79996,-26.201236 h -4.04758 c -4.52658,-2.894594 -10.34107,-4.599288 -16.97996,-4.599288 H 31.185922 c -5.781456,0 -11.389358,1.29834 -16.405027,3.543804 l 0.922608,-5.319641 C 8.3467527,43.073416 0.42733322,46.414559 -7.8548566,49.910858 Z"
       style="font-style:normal;font-variant:normal;font-weight:normal;font-stretch:normal;font-size:268.64974976px;line-height:1.25;font-family:'FTY OverKill IroncladNC';-inkscape-font-specification:'FTY OverKill IroncladNC, Normal';font-variant-ligatures:normal;font-variant-caps:normal;font-variant-numeric:normal;font-feature-settings:normal;text-align:start;letter-spacing:0px;word-spacing:0px;writing-mode:lr-tb;text-anchor:start;fill:#1a1a1a;fill-opacity:1;stroke:#d40000;stroke-width:23.59267426;stroke-miterlimit:8.30000019;stroke-dasharray:none;stroke-opacity:1" />
    <path
       id="path5581"
       d="M -5.3240457,35.314577 C -34.716893,47.938061 -73.087479,63.453041 -107.72245,80.234139 l 25.100783,12.331457 -23.313493,134.463424 c -4.26391,23.77154 -28.50624,38.50797 -54.14039,54.74588 17.60339,-5.77588 33.78985,-10.65157 49.63303,-14.61482 -8.55276,6.60397 -18.46765,12.79285 -28.60557,19.21469 50.482096,-16.56371 89.322203,-25.74792 141.7802482,-27.12928 -3.26501856,-1.4082 -6.1304535,-2.94514 -8.6113218,-4.59537 h 3.6273169 c 4.5264552,2.89431 10.3400049,4.5993 16.9785087,4.5993 H 123.20841 c 17.53234,0 33.50312,-11.88202 36.02372,-26.20123 L 187.49444,72.490244 c 2.5206,-14.31925 -9.26757,-26.201241 -26.79999,-26.201241 h -4.0475 C 152.12037,43.394405 146.30588,41.68971 139.66699,41.68971 H 31.185879 c -5.781456,0 -11.389315,1.298341 -16.404984,3.543805 L 15.70346,39.913878 C 8.3467527,43.073404 0.42733322,46.414542 -7.8548995,49.910845 Z"
       style="font-style:normal;font-variant:normal;font-weight:normal;font-stretch:normal;font-size:268.64974976px;line-height:1.25;font-family:'FTY OverKill IroncladNC';-inkscape-font-specification:'FTY OverKill IroncladNC, Normal';font-variant-ligatures:normal;font-variant-caps:normal;font-variant-numeric:normal;font-feature-settings:normal;text-align:start;letter-spacing:0px;word-spacing:0px;writing-mode:lr-tb;text-anchor:start;fill:#1a1a1a;fill-opacity:1;stroke:#1a1a1a;stroke-width:17.38407707;stroke-miterlimit:8.30000019;stroke-dasharray:none;stroke-opacity:1" />
    <g
       aria-label="0"
       transform="matrix(1.3596033,0,-0.19962403,1.1340572,-965.16566,26.789136)"
       style="font-style:normal;font-variant:normal;font-weight:normal;font-stretch:normal;font-size:268.64974976px;line-height:1.25;font-family:'FTY OverKill IroncladNC';-inkscape-font-specification:'FTY OverKill IroncladNC, Normal';font-variant-ligatures:normal;font-variant-caps:normal;font-variant-numeric:normal;font-feature-settings:normal;text-align:start;letter-spacing:0px;word-spacing:0px;writing-mode:lr-tb;text-anchor:start;fill:#d45500;fill-opacity:1;stroke:#1a1a1a;stroke-width:11;stroke-miterlimit:4;stroke-dasharray:none"
       id="text4661-1-2-8">
      <path
         d="m 733.0229,12.632145 c -12.89518,0 -23.10388,10.47734 -23.10388,23.103878 V 177.31444 c 0,12.62654 10.2087,23.10388 23.10388,23.10388 h 79.78898 c 12.89519,0 23.10388,-10.47734 23.10388,-23.10388 V 35.736023 c 0,-12.626538 -10.20869,-23.103878 -23.10388,-23.103878 z m 31.16337,52.118051 c 0,-4.029746 3.7611,-7.253543 7.79085,-7.253543 4.29839,0 8.05949,3.223797 8.05949,7.253543 v 82.475474 c 0,4.56704 -3.7611,8.05949 -8.05949,8.05949 -4.2984,0 -7.79085,-3.76109 -7.79085,-8.05949 z"
         style="font-style:normal;font-variant:normal;font-weight:normal;font-stretch:normal;font-size:268.64974976px;font-family:'FTY OverKill IroncladNC';-inkscape-font-specification:'FTY OverKill IroncladNC, Normal';font-variant-ligatures:normal;font-variant-caps:normal;font-variant-numeric:normal;font-feature-settings:normal;text-align:start;writing-mode:lr-tb;text-anchor:start;fill:#d45500;stroke:#1a1a1a;stroke-width:11;stroke-miterlimit:4;stroke-dasharray:none"
         id="path72" />
    </g>
    <g
       id="text4655-3-68-6"
       style="font-style:normal;font-variant:normal;font-weight:bold;font-stretch:normal;font-size:55.8852005px;line-height:1.25;font-family:Serpentine;-inkscape-font-specification:'Serpentine, Bold';font-variant-ligatures:normal;font-variant-caps:normal;font-variant-numeric:normal;font-feature-settings:normal;text-align:start;letter-spacing:0px;word-spacing:0px;writing-mode:lr-tb;text-anchor:start;fill:#d45500;fill-opacity:1;stroke:#1a1a1a;stroke-width:2.56420851;stroke-miterlimit:7.0999999;stroke-dasharray:none"
       transform="matrix(4.8221684,0,-1.0201957,5.8841462,-2547.6226,-1408.3574)"
       aria-label="1">
      <path
         id="path4669-3-3-5"
         style="fill:#d45500;stroke:#1a1a1a;stroke-width:2.56420851;stroke-miterlimit:7.0999999;stroke-dasharray:none"
         d="m 578.6299,245.25174 v 32.58151 c 0,1.91014 1.715,3.54872 5.19595,4.69348 -10.82886,0.23476 -18.55303,1.79556 -28.42624,4.61053 4.73207,-2.7596 9.22946,-5.26408 9.25899,-9.30401 v -22.85181 l -5.64855,-2.09569 c 6.57908,-2.85192 13.97836,-5.48867 19.61985,-7.63401 z" />
    </g>
    <g
       aria-label="0"
       transform="matrix(1.3596033,0,-0.19962403,1.1340572,-965.16566,26.789136)"
       style="font-style:normal;font-variant:normal;font-weight:normal;font-stretch:normal;font-size:268.64974976px;line-height:1.25;font-family:'FTY OverKill IroncladNC';-inkscape-font-specification:'FTY OverKill IroncladNC, Normal';font-variant-ligatures:normal;font-variant-caps:normal;font-variant-numeric:normal;font-feature-settings:normal;text-align:start;letter-spacing:0px;word-spacing:0px;writing-mode:lr-tb;text-anchor:start;fill:#1a1a1a;fill-opacity:1;stroke:none;stroke-width:14;stroke-miterlimit:8.30000019;stroke-dasharray:none"
       id="text4661-1-8">
      <path
         d="m 733.0229,12.632145 c -12.89518,0 -23.10388,10.47734 -23.10388,23.103878 V 177.31444 c 0,12.62654 10.2087,23.10388 23.10388,23.10388 h 79.78898 c 12.89519,0 23.10388,-10.47734 23.10388,-23.10388 V 35.736023 c 0,-12.626538 -10.20869,-23.103878 -23.10388,-23.103878 z m 31.16337,52.118051 c 0,-4.029746 3.7611,-7.253543 7.79085,-7.253543 4.29839,0 8.05949,3.223797 8.05949,7.253543 v 82.475474 c 0,4.56704 -3.7611,8.05949 -8.05949,8.05949 -4.2984,0 -7.79085,-3.76109 -7.79085,-8.05949 z"
         style="font-style:normal;font-variant:normal;font-weight:normal;font-stretch:normal;font-size:268.64974976px;font-family:'FTY OverKill IroncladNC';-inkscape-font-specification:'FTY OverKill IroncladNC, Normal';font-variant-ligatures:normal;font-variant-caps:normal;font-variant-numeric:normal;font-feature-settings:normal;text-align:start;writing-mode:lr-tb;text-anchor:start;fill:#1a1a1a;stroke:none;stroke-width:14;stroke-miterlimit:8.30000019;stroke-dasharray:none"
         id="path69" />
    </g>
    <g
       id="text4655-3-6"
       style="font-style:normal;font-variant:normal;font-weight:bold;font-stretch:normal;font-size:55.8852005px;line-height:1.25;font-family:Serpentine;-inkscape-font-specification:'Serpentine, Bold';font-variant-ligatures:normal;font-variant-caps:normal;font-variant-numeric:normal;font-feature-settings:normal;text-align:start;letter-spacing:0px;word-spacing:0px;writing-mode:lr-tb;text-anchor:start;fill:#1a1a1a;fill-opacity:1;stroke:none;stroke-width:3.26353812;stroke-miterlimit:8.30000019;stroke-dasharray:none"
       transform="matrix(4.8221684,0,-1.0201957,5.8841462,-2547.6226,-1408.3574)"
       aria-label="1">
      <path
         id="path4669-3-6"
         style="fill:#1a1a1a;stroke:none;stroke-width:3.26353812;stroke-miterlimit:8.30000019;stroke-dasharray:none"
         d="m 578.6299,245.25174 v 32.58151 c 0,1.91014 1.715,3.54872 5.19595,4.69348 -10.82886,0.23476 -18.55303,1.79556 -28.42624,4.61053 4.73207,-2.7596 9.22946,-5.26408 9.25899,-9.30401 v -22.85181 l -5.64855,-2.09569 c 6.57908,-2.85192 13.97836,-5.48867 19.61985,-7.63401 z" />
    </g>
    <g
       aria-label="0"
       transform="matrix(1.3596033,0,-0.19962403,1.1340572,-965.16565,26.789131)"
       style="font-style:normal;font-variant:normal;font-weight:normal;font-stretch:normal;font-size:268.64974976px;line-height:1.25;font-family:'FTY OverKill IroncladNC';-inkscape-font-specification:'FTY OverKill IroncladNC, Normal';font-variant-ligatures:normal;font-variant-caps:normal;font-variant-numeric:normal;font-feature-settings:normal;text-align:start;letter-spacing:0px;word-spacing:0px;writing-mode:lr-tb;text-anchor:start;fill:#1a1a1a;fill-opacity:1;stroke:#1a1a1a;stroke-width:11;stroke-miterlimit:4;stroke-dasharray:none"
       id="text4661-1">
      <path
         d="m 733.0229,12.632145 c -12.89518,0 -23.10388,10.47734 -23.10388,23.103878 V 177.31444 c 0,12.62654 10.2087,23.10388 23.10388,23.10388 h 79.78898 c 12.89519,0 23.10388,-10.47734 23.10388,-23.10388 V 35.736023 c 0,-12.626538 -10.20869,-23.103878 -23.10388,-23.103878 z m 31.16337,52.118051 c 0,-4.029746 3.7611,-7.253543 7.79085,-7.253543 4.29839,0 8.05949,3.223797 8.05949,7.253543 v 82.475474 c 0,4.56704 -3.7611,8.05949 -8.05949,8.05949 -4.2984,0 -7.79085,-3.76109 -7.79085,-8.05949 z"
         style="font-style:normal;font-variant:normal;font-weight:normal;font-stretch:normal;font-size:268.64974976px;font-family:'FTY OverKill IroncladNC';-inkscape-font-specification:'FTY OverKill IroncladNC, Normal';font-variant-ligatures:normal;font-variant-caps:normal;font-variant-numeric:normal;font-feature-settings:normal;text-align:start;writing-mode:lr-tb;text-anchor:start;fill:#1a1a1a;stroke:#1a1a1a;stroke-width:11;stroke-miterlimit:4;stroke-dasharray:none"
         id="path66" />
    </g>
    <g
       id="text4655-3"
       style="font-style:normal;font-variant:normal;font-weight:bold;font-stretch:normal;font-size:55.8852005px;line-height:1.25;font-family:Serpentine;-inkscape-font-specification:'Serpentine, Bold';font-variant-ligatures:normal;font-variant-caps:normal;font-variant-numeric:normal;font-feature-settings:normal;text-align:start;letter-spacing:0px;word-spacing:0px;writing-mode:lr-tb;text-anchor:start;fill:#1a1a1a;fill-opacity:1;stroke:#1a1a1a;stroke-width:2.56420851;stroke-miterlimit:7.0999999;stroke-dasharray:none"
       transform="matrix(4.8221684,0,-1.0201957,5.8841462,-2547.6226,-1408.3574)"
       aria-label="1">
      <path
         id="path4669-3"
         style="fill:#1a1a1a;stroke:#1a1a1a;stroke-width:2.56420851;stroke-miterlimit:7.0999999;stroke-dasharray:none"
         d="m 578.6299,245.25174 v 32.58151 c 0,1.91014 1.715,3.54872 5.19595,4.69348 -10.82886,0.23476 -18.55303,1.79556 -28.42624,4.61053 4.73207,-2.7596 9.22946,-5.26408 9.25899,-9.30401 v -22.85181 l -5.64855,-2.09569 c 6.57908,-2.85192 13.97836,-5.48867 19.61985,-7.63401 z" />
    </g>
    <path
       d="M -7.5764358,34.73962 -40.815952,226.45398 c -1.948717,11.23954 4.64963,20.88119 20.267479,27.61712 -52.45809,1.38136 -91.297657,10.56534 -141.779767,27.12903 25.63417,-16.23789 49.87641,-30.97461 54.14032,-54.74615 L -84.874598,91.990595 -109.97484,79.659249 C -75.339895,62.878136 -36.969318,47.363114 -7.5764358,34.73962 Z"
       style="font-style:normal;font-variant:normal;font-weight:bold;font-stretch:normal;font-size:medium;line-height:1.25;font-family:Serpentine;-inkscape-font-specification:'Serpentine, Bold';font-variant-ligatures:normal;font-variant-caps:normal;font-variant-numeric:normal;font-feature-settings:normal;text-align:start;letter-spacing:0px;word-spacing:0px;writing-mode:lr-tb;text-anchor:start;fill:#e6e6e6;fill-opacity:1;stroke:#d40000;stroke-width:6.20859861;stroke-miterlimit:10.29999924;stroke-dasharray:none"
       id="path4669" />
    <path
       id="rect5792"
       d="M 39.330154,66.523384 H 87.52919 c 11.066458,0 19.97556,8.909098 19.97556,19.975556 v 110.46312 c 0,11.06646 -8.909102,19.97555 -19.97556,19.97555 H 39.330154 c -11.066457,0 -19.975555,-8.90909 -19.975555,-19.97555 V 86.49894 c 0,-11.066458 8.909098,-19.975556 19.975555,-19.975556 z"
       style="opacity:1;vector-effect:none;fill:#d40000;fill-opacity:1;fill-rule:nonzero;stroke:none;stroke-width:23.59267235;stroke-linecap:square;stroke-linejoin:miter;stroke-miterlimit:8.30000019;stroke-dasharray:none;stroke-dashoffset:0;stroke-opacity:1;paint-order:markers fill stroke" />
    <path
       d="m 28.933027,41.114687 c -17.532329,0 -33.5036402,11.881903 -36.0242006,26.201118 L -35.353629,227.87382 c -2.520559,14.31921 9.267695,26.20111 26.8000241,26.20111 H 99.927756 c 17.532344,0 33.503644,-11.8819 36.024194,-26.20111 L 164.21441,67.315805 C 166.73497,52.99659 154.94673,41.114687 137.41439,41.114687 Z m 42.104068,59.104843 c 11.852988,0.28096 1.722463,0.25731 11.411912,0 l -16.464085,93.53189 c -10.775434,0.11443 -0.805818,0.0372 -11.411912,0 z"
       style="font-style:normal;font-variant:normal;font-weight:normal;font-stretch:normal;font-size:268.64974976px;line-height:1.25;font-family:'FTY OverKill IroncladNC';-inkscape-font-specification:'FTY OverKill IroncladNC, Normal';font-variant-ligatures:normal;font-variant-caps:normal;font-variant-numeric:normal;font-feature-settings:normal;text-align:start;letter-spacing:0px;word-spacing:0px;writing-mode:lr-tb;text-anchor:start;fill:#e6e6e6;fill-opacity:1;stroke:#d40000;stroke-width:6.20859861;stroke-miterlimit:4;stroke-dasharray:none"
       id="path5841" />
    <path
       transform="matrix(1.4191799,0,0,1.0864499,-965.16565,26.789131)"
       id="path5737"
       d="m 699.97419,15.925124 c -12.72772,0.08672 -21.12133,11.091784 -22.67393,22.304295 L 657.29217,182.72395 c -1.85643,13.40675 5.47193,24.01745 17.8258,24.01745 h 12.17083 c -12.35387,0 -25.12735,-11.18087 -23.35128,-24.01745 L 683.85257,38.790685 C 685.62864,25.954127 701.34934,15.83158 713.70318,15.83158 Z"
       style="font-style:normal;font-variant:normal;font-weight:normal;font-stretch:normal;font-size:268.64974976px;line-height:1.25;font-family:'FTY OverKill IroncladNC';-inkscape-font-specification:'FTY OverKill IroncladNC, Normal';font-variant-ligatures:normal;font-variant-caps:normal;font-variant-numeric:normal;font-feature-settings:normal;text-align:start;letter-spacing:0px;word-spacing:0px;writing-mode:lr-tb;text-anchor:start;fill:#b3b3b3;fill-opacity:1;stroke:none;stroke-width:4.93445921;stroke-miterlimit:4;stroke-dasharray:none;filter:url(#filter5900)" />
    <path
       transform="matrix(1.4191799,0,0,1.0864499,-965.16565,26.789131)"
       id="path4669-4-8"
       d="m 672.00912,11.838037 c -20.71119,11.61902 -39.41396,21.269241 -63.81886,36.715061 l 14.37897,9.365825 -16.55971,125.086957 c -2.34305,17.77897 -14.52968,32.79802 -25.44858,41.92302 6.11264,-2.61985 4.67849,-1.67185 10.39698,-3.88856 14.55428,-12.34493 17.47334,-19.726 19.98741,-38.03446 L 627.50452,57.918923 617.1866,48.553098 c 20.7582,-13.13783 35.05145,-20.784951 54.10576,-31.315921 z"
       style="font-style:normal;font-variant:normal;font-weight:bold;font-stretch:normal;font-size:medium;line-height:1.25;font-family:Serpentine;-inkscape-font-specification:'Serpentine, Bold';font-variant-ligatures:normal;font-variant-caps:normal;font-variant-numeric:normal;font-feature-settings:normal;text-align:start;letter-spacing:0px;word-spacing:0px;writing-mode:lr-tb;text-anchor:start;fill:#b3b3b3;fill-opacity:1;stroke:none;stroke-width:5;stroke-miterlimit:7.0999999;stroke-dasharray:none;filter:url(#filter5896)" />
    <path
       id="rect5844"
       d="m 749.85236,65.540405 h 10.79353 v 92.096255 h -10.79353 z"
       style="opacity:1;vector-effect:none;fill:#b3b3b3;fill-opacity:1;fill-rule:nonzero;stroke:none;stroke-width:17.14335442;stroke-linecap:square;stroke-linejoin:miter;stroke-miterlimit:8.30000019;stroke-dasharray:none;stroke-dashoffset:0;stroke-opacity:1;paint-order:markers fill stroke;filter:url(#filter5904)"
       transform="matrix(0.97182261,0,-0.17869556,1.0779095,-633.56797,26.669256)" />
  </g>
</svg>
