<?xml version="1.0" encoding="UTF-8" standalone="no"?>
<svg
   xmlns:dc="http://purl.org/dc/elements/1.1/"
   xmlns:cc="http://creativecommons.org/ns#"
   xmlns:rdf="http://www.w3.org/1999/02/22-rdf-syntax-ns#"
   xmlns:svg="http://www.w3.org/2000/svg"
   xmlns="http://www.w3.org/2000/svg"
   id="svg183"
   viewBox="0 0 655.73 268.27"
   version="1.1"
   height="268.27mm"
   width="655.73mm">
  <defs
     id="defs187" />
  <metadata
     id="metadata139">
    <rdf:RDF>
      <cc:Work
         rdf:about="">
        <dc:format>image/svg+xml</dc:format>
        <dc:type
           rdf:resource="http://purl.org/dc/dcmitype/StillImage" />
        <dc:title></dc:title>
      </cc:Work>
    </rdf:RDF>
  </metadata>
  <path
     d="m 31.100165,48.054366 q 0,0.372133 0.801517,0.289904 0.554897,-0.05693 4.994066,-1.150286 4.500824,-1.099683 8.138476,-1.526034 -4.069238,1.374377 -7.028684,2.688062 -2.897791,1.254197 -6.042203,2.799504 -3.082756,1.485822 -4.439169,2.050271 -1.356413,0.511287 -2.342895,0.612491 -3.144411,0.322588 -3.144411,-3.186087 0,-9.037493 5.302341,-13.249624 2.15793,-1.709912 6.905375,-4.217102 4.809099,-2.566677 10.789646,-4.987725 6.042203,-2.480535 13.255852,-4.549631 7.213651,-2.069098 14.242335,-2.790176 7.21365,-0.740054 13.255852,0.447571 6.042203,1.187625 10.111441,4.066186 4.069238,2.825399 6.227166,7.335409 2.21959,4.503685 2.21959,10.404637 0,8.984333 -6.042205,18.056922 -5.980548,9.066264 -16.030334,16.58301 -9.988131,7.457259 -22.565776,12.522093 -12.577646,5.064832 -24.785362,6.317231 -2.281239,0.234034 -3.637652,-0.0521 -1.294758,-0.292464 -1.849653,-1.511421 -0.554897,-1.165787 -0.554897,-3.611224 0,-3.030222 0.554897,-5.000972 0.554895,-1.970749 1.849653,-4.602181 8.878338,-17.869428 30.889218,-45.857818 -4.439169,0.880712 -9.741509,2.647403 -5.302341,1.713529 -10.049786,3.63594 -4.747445,1.92241 -8.015167,3.586692 -3.267722,1.664281 -3.267722,2.24906 z M 63.962348,35.432869 q 0,0.106323 0.246621,1.197419 0.24662,1.037934 0.24662,1.835359 0,1.22272 -1.479723,3.607319 -1.418067,2.325111 -5.672271,8.396697 -4.254205,6.071585 -7.275305,10.634461 -3.021101,4.562875 -7.151995,11.685045 -1.294758,2.259299 -1.787999,3.054165 -0.493241,0.794866 -1.603033,2.609896 -1.048137,1.808704 -1.541378,3.082026 -0.493241,1.273322 -0.493241,1.911263 0,1.382205 1.726343,1.789876 1.787999,0.348186 5.05572,0.01295 8.385097,-0.860233 17.756678,-4.426596 9.371578,-3.619524 17.571711,-9.139014 8.261787,-5.525816 13.194197,-11.932787 4.93241,-6.406972 4.93241,-12.839541 0,-7.336319 -6.227168,-10.631437 -6.227167,-3.34828 -18.126607,-2.127507 -4.994066,0.512345 -9.37158,1.280408 z"
     style="font-style:italic;font-size:117.25033569px;line-height:1.25;font-family:'Brush Script MT';font-variant-ligatures:normal;font-variant-caps:normal;font-variant-numeric:normal;font-feature-settings:normal;letter-spacing:0px;word-spacing:0px;fill:#1a1a1a;stroke:#1a1a1a;stroke-width:28.95195198"
     id="path288" />
  <path
     d="m 97.434127,61.71638 q 9.371583,-8.297756 18.188263,-12.764103 8.81668,-4.466345 13.62579,-4.959715 1.29475,-0.132829 2.40454,0.710227 1.10979,0.789895 1.72634,1.949363 0.67822,1.153141 0.67822,1.73792 0,0.956911 -0.86318,1.523921 -0.86318,0.513848 -3.02111,1.373171 0.43159,0.806312 1.10981,2.065776 0.6782,1.259466 1.04812,2.072103 0.36994,0.759474 0.36994,1.397415 0,1.275881 -3.0211,5.094492 -2.95945,3.759125 -4.19255,5.533643 -1.17144,1.768193 -1.17144,4.160471 0,3.933968 4.19254,3.503852 4.31586,-0.442767 13.50247,-8.349415 v 3.242865 q -15.59874,16.538736 -22.31915,17.228188 -2.40455,0.246684 -3.45269,-1.027992 -0.98648,-1.22784 -0.98648,-3.885929 0,-4.199776 3.51434,-12.534574 -9.00164,9.535686 -13.37916,13.652935 -4.37752,4.064092 -7.213651,4.355053 -1.356413,0.139156 -3.391032,-1.672254 -2.03462,-1.811418 -3.637653,-4.836662 -1.541378,-3.084734 -1.541378,-6.540247 0,-2.498601 0.554896,-4.203542 0.554897,-1.758102 2.157929,-3.676896 1.603034,-1.918793 5.117376,-5.150066 z m 29.532813,-8.877583 q -16.03034,7.970809 -22.87406,13.085336 -6.782063,5.108201 -6.782063,9.786433 0,1.701176 0.678206,2.747994 0.678207,0.993656 1.849655,0.873477 0.678202,-0.06958 2.404552,-0.990949 6.47379,-3.960178 11.83778,-9.773486 5.364,-5.866469 12.88593,-15.728805 z"
     style="font-style:italic;font-size:117.25033569px;line-height:1.25;font-family:'Brush Script MT';font-variant-ligatures:normal;font-variant-caps:normal;font-variant-numeric:normal;font-feature-settings:normal;letter-spacing:0px;word-spacing:0px;fill:#1a1a1a;stroke:#1a1a1a;stroke-width:28.95195198"
     id="path290" />
  <path
     d="m 140.90099,70.866484 v -3.455512 q 3.32938,-3.743915 5.05573,-6.313299 -1.97297,-0.382371 -2.8978,-1.13808 -0.86317,-0.762034 -0.86317,-2.46321 0,-1.913822 1.84965,-5.027475 1.84966,-3.113652 4.56249,-5.943726 2.71282,-2.830074 4.93241,-3.802048 0.86316,-0.460684 1.66468,-0.542913 1.2331,-0.126505 1.2331,0.883568 0,0.903749 -1.9113,3.864242 12.70095,-3.004176 16.03033,-3.345739 1.29476,-0.132831 1.788,0.02921 1.04814,0.370926 1.72634,2.055685 0.67821,1.68476 0.67821,3.439098 0,1.116396 -1.17145,2.565618 -1.10979,1.389737 -3.88427,4.172974 -3.26772,3.365456 -5.4873,7.155001 -2.2196,3.789546 -2.2196,5.597045 0,2.498601 3.576,2.131736 3.76097,-0.38584 13.07089,-7.933006 v 3.561835 q -5.11737,5.150066 -8.44675,8.149716 -3.32938,2.999649 -6.16552,4.885467 -2.83613,1.832649 -5.05571,2.060357 -2.58952,0.265661 -4.31586,-1.577375 -1.72634,-1.896206 -1.72634,-5.777011 0,-2.285954 1.3564,-5.349005 1.35642,-3.063051 3.94593,-6.731061 2.65117,-3.727498 5.91889,-7.465087 -1.72634,0.496077 -3.88427,1.089593 -2.15793,0.540354 -4.56247,1.15917 -2.40456,0.618818 -3.69931,0.964294 -3.82262,6.98422 -11.09793,13.099934 z"
     style="font-style:italic;font-size:117.25033569px;line-height:1.25;font-family:'Brush Script MT';font-variant-ligatures:normal;font-variant-caps:normal;font-variant-numeric:normal;font-feature-settings:normal;letter-spacing:0px;word-spacing:0px;fill:#1a1a1a;stroke:#1a1a1a;stroke-width:28.95195198"
     id="path292" />
  <path
     d="m 206.93364,62.071999 -10.97461,9.153314 q -7.8302,6.70426 -10.48137,6.976246 -2.40455,0.246685 -5.05573,-4.212725 -2.65117,-4.512571 -2.65117,-8.074406 0,-3.030219 1.04814,-5.211055 1.10979,-2.240324 3.76096,-5.861499 3.76097,-4.904587 7.21366,-8.395343 3.45268,-3.490755 6.10386,-5.463917 2.65117,-2.026323 3.6993,-2.133852 1.66469,-0.170782 3.20607,1.159615 1.60304,1.324072 1.60304,2.918924 0,1.010073 -1.72635,3.419973 -1.66469,2.403575 -5.36399,6.238601 -3.63766,3.775541 -10.1731,9.230573 l -1.17145,3.044074 q -0.49324,0.90119 -0.49324,1.53913 0,1.435367 1.66469,1.264586 1.72634,-0.177107 8.07682,-4.60309 6.41214,-4.432309 13.8724,-11.577071 2.8978,-2.795888 4.8091,-4.905792 1.91131,-2.109906 3.45269,-3.916051 1.54138,-1.859306 2.52786,-2.811097 1.04813,-0.958117 1.84966,-1.093508 1.54138,-0.317616 2.40454,0.869712 0.86318,1.187328 0.86318,3.685929 0,1.435367 -1.47973,3.766805 -1.47972,2.278274 -5.54896,7.90559 -4.06924,5.574155 -8.13847,11.573601 -4.00759,5.939962 -8.20013,13.334266 0.18496,-0.178458 3.76096,-3.575546 3.63764,-3.403403 7.64523,-7.110575 4.00758,-3.707168 6.5971,-5.939813 2.58952,-2.285806 6.47379,-5.342383 v 3.561836 q -8.32345,8.56236 -15.10551,16.169159 -6.72041,7.600479 -10.41971,12.126609 -3.63766,4.519806 -4.25421,5.274156 -1.66468,2.031443 -3.0211,3.765456 -1.29476,1.780839 -2.21959,2.726309 -0.86317,0.9923 -1.41807,1.04923 -1.29475,0.13283 -2.34289,-1.99244 -0.98648,-2.078418 -0.98648,-3.779596 0,-1.541687 0.67821,-2.780829 4.43917,-9.067613 19.9146,-31.973106 z"
     style="font-style:italic;font-size:117.25033569px;line-height:1.25;font-family:'Brush Script MT';font-variant-ligatures:normal;font-variant-caps:normal;font-variant-numeric:normal;font-feature-settings:normal;letter-spacing:0px;word-spacing:0px;fill:#1a1a1a;stroke:#1a1a1a;stroke-width:28.95195198"
     id="path294" />
  <path
     d="m 267.41732,44.171351 q -10.8513,11.532942 -10.8513,15.626395 0,2.285954 2.15793,2.064571 1.78799,-0.183432 4.62413,-2.069245 2.89779,-1.9453 9.00165,-6.718115 v 3.668159 q -8.75503,8.340828 -13.44082,12.117575 -4.68579,3.776746 -7.64523,4.080357 -5.05572,0.51867 -5.05572,-5.222794 0,-1.701179 0.61655,-3.412445 0.61655,-1.711266 1.66469,-3.573132 1.10979,-1.921353 3.32937,-5.445089 2.21958,-3.576898 5.11738,-8.073962 -3.51435,1.90223 -8.81669,7.01811 -3.45268,3.224947 -5.85724,6.076557 -2.40454,2.798447 -5.17902,6.272787 -2.71283,3.414854 -4.00759,4.664077 -1.2331,1.189746 -2.52785,1.322576 -1.97297,0.202408 -3.63766,-3.188651 -1.66469,-3.391053 -1.66469,-8.122447 0,-2.923895 0.73986,-4.647812 0.80152,-1.730242 3.08276,-4.994495 4.25421,-6.071585 7.33696,-8.992773 3.08275,-2.974348 5.91889,-3.265309 1.97296,-0.202408 3.14441,0.262192 1.23311,0.458272 1.23311,1.680993 0,0.531617 -0.36993,1.154348 -0.36994,0.62273 -0.86318,1.151788 -0.43159,0.522733 -1.9113,2.056743 -9.74151,10.302692 -9.74151,13.067101 0,1.54169 1.17144,1.421511 0.73986,-0.0759 2.83614,-2.311107 2.15793,-2.294691 5.4873,-5.932281 3.39104,-3.697078 7.95352,-7.780144 4.62413,-4.089391 10.48136,-8.039478 3.26772,-2.302222 5.42565,-2.523606 0.98649,-0.101204 1.91132,2.143033 0.98648,2.237912 0.98648,4.63019 0,1.169558 -2.65117,3.833822 z"
     style="font-style:italic;font-size:117.25033569px;line-height:1.25;font-family:'Brush Script MT';font-variant-ligatures:normal;font-variant-caps:normal;font-variant-numeric:normal;font-feature-settings:normal;letter-spacing:0px;word-spacing:0px;fill:#1a1a1a;stroke:#1a1a1a;stroke-width:28.95195198"
     id="path296" />
  <path
     d="m 67.645256,92.567118 h 55.854814 v 27.364132 q -1.77451,1.96067 -2.61951,3.92134 -0.84501,1.96067 -1.09851,4.77381 -0.25349,2.72788 -0.25349,9.12137 v 15.17388 q 11.15406,-17.56078 13.52006,-21.56737 2.36602,-4.00658 3.21103,-7.07546 0.9295,-3.06887 0.9295,-8.35416 V 92.567118 h 50.36229 v 27.364132 q -2.70401,1.1082 -5.15453,3.92134 -2.45052,2.72788 -6.16854,8.86564 -3.71802,6.0525 -8.36554,13.89518 -4.56303,7.84268 -8.87255,14.57715 8.45004,17.04931 14.36508,29.3248 5.91503,12.19026 8.45005,16.96407 2.53501,4.68855 4.22502,6.39348 1.69001,1.61969 4.30952,2.30166 v 26.17068 h -53.1508 v -19.18047 q 0,-5.62627 -0.845,-8.95088 -0.76051,-3.32462 -3.21102,-8.35417 -2.45051,-5.11479 -13.60457,-26.68215 0,14.83289 0.0845,20.62965 0.0845,5.79677 0.4225,8.95089 0.4225,3.15412 1.01401,4.26233 0.5915,1.1082 2.45051,3.15412 v 26.17068 H 67.645256 v -26.17068 q 3.380019,-1.36394 4.478525,-5.37053 1.183006,-4.00659 1.183006,-10.14434 l -0.169,-62.74144 q 0,-7.3312 -0.929506,-11.76402 -0.929505,-4.43281 -4.563025,-6.22299 z"
     style="font-weight:bold;font-size:173.81924438px;line-height:1.25;font-family:AardvarkBold;font-variant-ligatures:normal;font-variant-caps:normal;font-variant-numeric:normal;font-feature-settings:normal;letter-spacing:0px;word-spacing:0px;fill:#d40000;stroke:#1a1a1a;stroke-width:45.66332245"
     id="path277" />
  <path
     d="m 197.01549,92.567118 h 55.93932 v 27.364132 q -3.29552,1.2787 -4.47853,4.34757 -1.0985,2.98363 -1.0985,7.92793 l 0.25349,78.51204 q 5.99954,0 9.04156,-2.13116 3.04202,-2.13117 4.22502,-6.64923 1.18301,-4.51807 1.35201,-11.42304 0.2535,-6.99021 0.2535,-20.97064 h 42.33475 v 72.80053 H 195.83248 v -26.17068 q 5.23904,-2.21641 5.57704,-9.97384 0,-3.49511 -0.16901,-5.02955 v -67.42999 q 0,-6.99022 -0.5915,-9.54761 -0.5915,-2.5574 -3.63352,-4.26233 z"
     style="font-weight:bold;font-size:173.81924438px;line-height:1.25;font-family:AardvarkBold;font-variant-ligatures:normal;font-variant-caps:normal;font-variant-numeric:normal;font-feature-settings:normal;letter-spacing:0px;word-spacing:0px;fill:#d40000;stroke:#1a1a1a;stroke-width:45.66332245"
     id="path279" />
  <path
     d="m 315.73867,92.567118 h 111.79414 v 52.170862 h -43.60225 v -9.54761 q 0,-9.63285 -16.3086,-9.63285 v 27.36413 h 29.99767 v 28.98382 h -29.99767 v 28.81332 q 6.92904,0 10.56257,-1.53444 3.71802,-1.61968 4.73203,-3.83609 1.014,-2.30165 1.014,-5.62627 v -10.9968 h 43.60225 v 53.62006 H 315.73867 v -27.44938 q 2.45052,-1.2787 3.29552,-3.49511 0.84501,-2.21641 1.01401,-5.54103 0,-3.15411 -0.169,-4.68855 v -70.24313 q 0,-8.18367 -4.14053,-12.36075 z"
     style="font-weight:bold;font-size:173.81924438px;line-height:1.25;font-family:AardvarkBold;font-variant-ligatures:normal;font-variant-caps:normal;font-variant-numeric:normal;font-feature-settings:normal;letter-spacing:0px;word-spacing:0px;fill:#d40000;stroke:#1a1a1a;stroke-width:45.66332245"
     id="path281" />
  <path
     d="m 434.29284,92.567118 h 58.72783 V 118.5673 q -3.54901,2.7279 -4.47852,6.223 -0.92951,3.40986 -0.92951,8.95089 v 65.9808 q 0,5.20004 0.4225,8.09842 0.50701,2.89838 1.43652,4.34757 0.9295,1.36395 3.54901,4.00659 v 26.17068 h -58.72783 v -26.17068 q 5.74603,-4.34758 5.74603,-15.00339 l -0.676,-67.77098 q 0,-4.85905 -0.92951,-8.86564 -0.9295,-4.09183 -4.14052,-5.96726 z"
     style="font-weight:bold;font-size:173.81924438px;line-height:1.25;font-family:AardvarkBold;font-variant-ligatures:normal;font-variant-caps:normal;font-variant-numeric:normal;font-feature-settings:normal;letter-spacing:0px;word-spacing:0px;fill:#d40000;stroke:#1a1a1a;stroke-width:45.66332245"
     id="path283" />
  <path
     d="m 505.35773,92.567118 h 50.5313 l 25.77264,67.344742 v -26.17067 q 0,-7.67219 -0.676,-10.31483 -0.59151,-2.72789 -3.29552,-4.85906 V 92.567118 h 47.65827 V 118.5673 q -2.53501,2.47215 -3.63352,4.09184 -1.01401,1.61968 -1.43651,3.32462 -0.338,1.61968 -0.338,3.92133 v 3.8361 108.60406 h -44.95426 l -28.73016,-67.43 v 23.4428 q 0,6.47873 0.84501,9.80335 0.9295,3.32461 4.64753,5.37053 v 28.81332 h -46.39078 v -27.44938 q 3.38002,-1.96067 4.39403,-4.51806 1.01401,-2.5574 1.18301,-6.99022 v -5.02954 -63.16768 q 0,-8.69514 -1.01401,-11.67876 -1.014,-3.06888 -4.56303,-4.94431 z"
     style="font-weight:bold;font-size:173.81924438px;line-height:1.25;font-family:AardvarkBold;font-variant-ligatures:normal;font-variant-caps:normal;font-variant-numeric:normal;font-feature-settings:normal;letter-spacing:0px;word-spacing:0px;fill:#d40000;stroke:#1a1a1a;stroke-width:45.66332245"
     id="path285" />
  <path
     d="m 65.470226,87.298684 h 56.290384 v 27.336176 q -1.78835,1.95867 -2.63994,3.91734 -0.85159,1.95866 -1.10707,4.76893 -0.25548,2.7251 -0.25548,9.11206 v 15.15837 q 11.24104,-17.54284 13.62551,-21.54533 2.38446,-4.0025 3.23606,-7.06824 0.93675,-3.06574 0.93675,-8.34562 V 87.298684 h 50.75503 v 27.336176 q -2.72511,1.10708 -5.19473,3.91734 -2.46962,2.7251 -6.21664,8.85658 -3.74701,6.04632 -8.43078,13.88099 -4.59861,7.83466 -8.94174,14.56226 8.51594,17.03189 14.4771,29.29485 5.96116,12.1778 8.51594,16.94672 2.55479,4.68377 4.25798,6.38696 1.70318,1.61803 4.34313,2.29931 v 26.14394 h -53.56529 v -19.16087 q 0,-5.62052 -0.85159,-8.94174 -0.76644,-3.32122 -3.23606,-8.34563 -2.46963,-5.10956 -13.71067,-26.6549 0,14.81774 0.0852,20.60858 0.0852,5.79085 0.4258,8.94175 0.42579,3.15089 1.02191,4.25797 0.59612,1.10707 2.46962,3.1509 v 26.14394 H 65.470226 v -26.14394 q 3.406377,-1.36255 4.51345,-5.36505 1.192232,-4.00249 1.192232,-10.13397 L 71.005589,132.6035 q 0,-7.32371 -0.936754,-11.752 -0.936754,-4.42829 -4.598609,-6.21664 z"
     style="font-weight:bold;font-size:174.40652466px;line-height:1.25;font-family:AardvarkBold;font-variant-ligatures:normal;font-variant-caps:normal;font-variant-numeric:normal;font-feature-settings:normal;letter-spacing:0px;word-spacing:0px;fill:#d40000;stroke:#d40000;stroke-width:25.93262672"
     id="path266" />
  <path
     d="m 195.84933,87.298684 h 56.37554 v 27.336176 q -3.32121,1.27739 -4.51345,4.34313 -1.10707,2.98058 -1.10707,7.91983 l 0.25548,78.43184 q 6.04632,0 9.11206,-2.12898 3.06574,-2.12899 4.25797,-6.64244 1.19223,-4.51345 1.36255,-11.41136 0.25548,-6.98308 0.25548,-20.94923 h 42.66488 v 72.72616 H 194.6571 v -26.14394 q 5.27988,-2.21415 5.62052,-9.96366 0,-3.49153 -0.17032,-5.0244 v -67.36112 q 0,-6.98307 -0.59612,-9.53786 -0.59611,-2.55478 -3.66185,-4.25797 z"
     style="font-weight:bold;font-size:174.40652466px;line-height:1.25;font-family:AardvarkBold;font-variant-ligatures:normal;font-variant-caps:normal;font-variant-numeric:normal;font-feature-settings:normal;letter-spacing:0px;word-spacing:0px;fill:#d40000;stroke:#d40000;stroke-width:25.93262672"
     id="path268" />
  <path
     d="M 315.49833,87.298684 H 428.16427 V 139.41626 H 384.222 v -9.53786 q 0,-9.62301 -16.43577,-9.62301 v 27.33617 h 30.2316 v 28.95421 h -30.2316 v 28.78389 q 6.98307,0 10.64493,-1.53287 3.74701,-1.61803 4.76892,-3.83217 1.02192,-2.29931 1.02192,-5.62053 v -10.98556 h 43.94227 v 53.56528 H 315.49833 v -27.42134 q 2.46963,-1.27739 3.32122,-3.49153 0.85159,-2.21415 1.02191,-5.53537 0,-3.15089 -0.17032,-4.68376 v -70.17138 q 0,-8.17531 -4.17281,-12.34812 z"
     style="font-weight:bold;font-size:174.40652466px;line-height:1.25;font-family:AardvarkBold;font-variant-ligatures:normal;font-variant-caps:normal;font-variant-numeric:normal;font-feature-settings:normal;letter-spacing:0px;word-spacing:0px;fill:#d40000;stroke:#d40000;stroke-width:25.93262672"
     id="path270" />
  <path
     d="m 434.97701,87.298684 h 59.18581 v 25.973626 q -3.57669,2.7251 -4.51345,6.21664 -0.93675,3.40638 -0.93675,8.94174 v 65.9134 q 0,5.19473 0.42579,8.09015 0.51096,2.89542 1.44772,4.34313 0.93675,1.36255 3.57669,4.0025 v 26.14394 h -59.18581 v -26.14394 q 5.79085,-4.34314 5.79085,-14.98806 l -0.68128,-67.70176 q 0,-4.85408 -0.93675,-8.85658 -0.93676,-4.08765 -4.17282,-5.96116 z"
     style="font-weight:bold;font-size:174.40652466px;line-height:1.25;font-family:AardvarkBold;font-variant-ligatures:normal;font-variant-caps:normal;font-variant-numeric:normal;font-feature-settings:normal;letter-spacing:0px;word-spacing:0px;fill:#d40000;stroke:#d40000;stroke-width:25.93262672"
     id="path272" />
  <path
     d="m 506.59611,87.298684 h 50.92535 l 25.97362,67.275956 v -26.14395 q 0,-7.66435 -0.68127,-10.30429 -0.59612,-2.7251 -3.32122,-4.85409 V 87.298684 h 48.02992 v 25.973626 q -2.55478,2.46963 -3.66185,4.08765 -1.02192,1.61803 -1.44771,3.32122 -0.34064,1.61803 -0.34064,3.91734 v 3.83217 108.49312 H 576.76749 L 547.81328,169.5627 v 23.41884 q 0,6.47212 0.85159,9.79334 0.93676,3.32122 4.68377,5.36504 v 28.78389 h -46.75253 v -27.42134 q 3.40638,-1.95866 4.42829,-4.51345 1.02192,-2.55478 1.19224,-6.98307 v -5.02441 -63.10314 q 0,-8.68626 -1.02192,-11.66684 -1.02191,-3.06574 -4.59861,-4.93925 z"
     style="font-weight:bold;font-size:174.40652466px;line-height:1.25;font-family:AardvarkBold;font-variant-ligatures:normal;font-variant-caps:normal;font-variant-numeric:normal;font-feature-settings:normal;letter-spacing:0px;word-spacing:0px;fill:#d40000;stroke:#d40000;stroke-width:25.93262672"
     id="path274" />
  <path
     d="m 29.316693,44.487268 q 0,0.372132 0.801517,0.289904 0.554896,-0.05693 4.994065,-1.150286 4.500825,-1.099683 8.138477,-1.526035 -4.069238,1.374378 -7.028685,2.688063 -2.897791,1.254197 -6.042202,2.799504 -3.082757,1.48582 -4.439169,2.05027 -1.356413,0.511288 -2.342895,0.612492 -3.144411,0.322587 -3.144411,-3.186087 0,-9.037495 5.302341,-13.249625 2.157929,-1.709912 6.905373,-4.217102 4.8091,-2.566676 10.789648,-4.987724 6.042203,-2.480535 13.255852,-4.549632 7.21365,-2.069097 14.242335,-2.790175 7.213649,-0.740054 13.255852,0.447571 6.042203,1.187624 10.111441,4.066186 4.069238,2.825398 6.227168,7.335409 2.21958,4.503685 2.21958,10.404637 0,8.984332 -6.042199,18.056922 -5.980546,9.066263 -16.030332,16.583009 -9.988131,7.45726 -22.565777,12.522093 -12.577646,5.064829 -24.785361,6.317228 -2.281239,0.234034 -3.637652,-0.0521 -1.294758,-0.292464 -1.849655,-1.511421 -0.554896,-1.165796 -0.554896,-3.611233 0,-3.030219 0.554896,-5.000968 0.554897,-1.97075 1.849655,-4.602181 8.878338,-17.869428 30.889218,-45.857818 -4.439169,0.880711 -9.74151,2.647403 -5.302341,1.713529 -10.049786,3.63594 -4.747445,1.92241 -8.015166,3.586692 -3.267722,1.664281 -3.267722,2.24906 z M 62.178876,31.865771 q 0,0.106323 0.246621,1.197418 0.24662,1.037934 0.24662,1.83536 0,1.22272 -1.479723,3.607318 -1.418068,2.325112 -5.672272,8.396697 -4.254204,6.071585 -7.275305,10.634462 -3.021102,4.562875 -7.151995,11.685045 -1.294757,2.259298 -1.787998,3.054165 -0.493241,0.794866 -1.603034,2.609896 -1.048137,1.808704 -1.541378,3.082026 -0.493241,1.273322 -0.493241,1.911262 0,1.382206 1.726344,1.789877 1.787999,0.348186 5.05572,0.01295 8.385097,-0.860234 17.756677,-4.426596 9.371579,-3.619524 17.571711,-9.139014 8.261787,-5.525816 13.194198,-11.932787 4.93241,-6.406972 4.93241,-12.839541 0,-7.336319 -6.227168,-10.631437 -6.227168,-3.34828 -18.126608,-2.127507 -4.994065,0.512345 -9.371579,1.280408 z"
     style="font-style:italic;font-size:117.25033569px;line-height:1.25;font-family:'Brush Script MT';font-variant-ligatures:normal;font-variant-caps:normal;font-variant-numeric:normal;font-feature-settings:normal;letter-spacing:0px;word-spacing:0px;fill:#1a1a1a;stroke:#d40000;stroke-width:20.52588844"
     id="path255" />
  <path
     d="m 95.650655,58.149282 q 9.371575,-8.297756 18.188265,-12.764103 8.81668,-4.466346 13.62578,-4.959715 1.29476,-0.13283 2.40455,0.710226 1.10979,0.789896 1.72634,1.949363 0.67821,1.153141 0.67821,1.737921 0,0.95691 -0.86317,1.523921 -0.86318,0.513847 -3.02111,1.373171 0.43159,0.806311 1.10979,2.065777 0.67822,1.259465 1.04814,2.072102 0.36994,0.759474 0.36994,1.397415 0,1.275881 -3.0211,5.094491 -2.95945,3.759125 -4.19255,5.533644 -1.17145,1.768193 -1.17145,4.16047 0,3.933969 4.19254,3.503853 4.31586,-0.442767 13.50248,-8.349416 v 3.242866 q -15.59875,16.538733 -22.31916,17.228184 -2.40454,0.246684 -3.45268,-1.027992 -0.98648,-1.22784 -0.98648,-3.885925 0,-4.199776 3.51433,-12.534574 -9.00164,9.535685 -13.37915,13.652938 -4.377518,4.064094 -7.213654,4.355056 -1.356413,0.139155 -3.391032,-1.672262 -2.034619,-1.811413 -3.637653,-4.83666 -1.541378,-3.084735 -1.541378,-6.540247 0,-2.498601 0.554896,-4.203542 0.554896,-1.758102 2.15793,-3.676896 1.603034,-1.918793 5.117376,-5.150066 z m 29.532815,-8.877584 q -16.03034,7.97081 -22.87406,13.085337 -6.782065,5.108201 -6.782065,9.786432 0,1.701175 0.678206,2.747994 0.678207,0.993657 1.849653,0.873477 0.678207,-0.06958 2.404546,-0.990949 6.47379,-3.960177 11.83779,-9.773485 5.364,-5.86647 12.88593,-15.728806 z"
     style="font-style:italic;font-size:117.25033569px;line-height:1.25;font-family:'Brush Script MT';font-variant-ligatures:normal;font-variant-caps:normal;font-variant-numeric:normal;font-feature-settings:normal;letter-spacing:0px;word-spacing:0px;fill:#1a1a1a;stroke:#d40000;stroke-width:20.52588844"
     id="path257" />
  <path
     d="m 139.11752,67.299386 v -3.455512 q 3.32938,-3.743915 5.05572,-6.313299 -1.97296,-0.382372 -2.89779,-1.13808 -0.86317,-0.762035 -0.86317,-2.46321 0,-1.913823 1.84965,-5.027475 1.84966,-3.113653 4.56249,-5.943727 2.71282,-2.830074 4.9324,-3.802047 0.86317,-0.460685 1.66469,-0.542913 1.2331,-0.126505 1.2331,0.883568 0,0.903749 -1.9113,3.864241 12.70095,-3.004175 16.03032,-3.345739 1.29477,-0.13283 1.78801,0.02922 1.04813,0.370927 1.72634,2.055685 0.67821,1.68476 0.67821,3.439097 0,1.116397 -1.17145,2.565619 -1.10979,1.389737 -3.88427,4.172973 -3.26772,3.365457 -5.48732,7.155003 -2.21958,3.789545 -2.21958,5.597044 0,2.4986 3.576,2.131736 3.76096,-0.385841 13.07089,-7.933007 v 3.561836 q -5.11737,5.150066 -8.44675,8.149716 -3.32939,2.99965 -6.16552,4.885463 -2.83613,1.832649 -5.05572,2.060357 -2.58951,0.265661 -4.31585,-1.577375 -1.72635,-1.896201 -1.72635,-5.777007 0,-2.285955 1.35641,-5.349005 1.35642,-3.063051 3.94593,-6.731062 2.65117,-3.727498 5.91889,-7.465086 -1.72634,0.496077 -3.88427,1.089593 -2.15793,0.540354 -4.56248,1.15917 -2.40455,0.618817 -3.69931,0.964294 -3.82261,6.98422 -11.09792,13.099934 z"
     style="font-style:italic;font-size:117.25033569px;line-height:1.25;font-family:'Brush Script MT';font-variant-ligatures:normal;font-variant-caps:normal;font-variant-numeric:normal;font-feature-settings:normal;letter-spacing:0px;word-spacing:0px;fill:#1a1a1a;stroke:#d40000;stroke-width:20.52588844"
     id="path259" />
  <path
     d="m 205.15017,58.5049 -10.97461,9.153315 q -7.8302,6.704256 -10.48137,6.976242 -2.40456,0.246685 -5.05573,-4.212722 -2.65117,-4.51257 -2.65117,-8.074405 0,-3.030219 1.04814,-5.211056 1.10979,-2.240323 3.76096,-5.861498 3.76097,-4.904587 7.21366,-8.395343 3.45268,-3.490757 6.10385,-5.463917 2.65117,-2.026323 3.69931,-2.133853 1.66469,-0.170781 3.20607,1.159616 1.60303,1.324072 1.60303,2.918924 0,1.010073 -1.72634,3.419972 -1.6647,2.403576 -5.36399,6.238602 -3.63766,3.775541 -10.1731,9.230573 l -1.17145,3.044074 q -0.49324,0.90119 -0.49324,1.53913 0,1.435367 1.66469,1.264585 1.72634,-0.177106 8.07682,-4.60309 6.41213,-4.432308 13.8724,-11.57707 2.89779,-2.795888 4.8091,-4.905792 1.91131,-2.109906 3.45269,-3.916051 1.54137,-1.859306 2.52785,-2.811098 1.04814,-0.958117 1.84966,-1.093507 1.54138,-0.317616 2.40455,0.869712 0.86318,1.187327 0.86318,3.685929 0,1.435367 -1.47973,3.766804 -1.47973,2.278275 -5.54896,7.905591 -4.06924,5.574155 -8.13848,11.573601 -4.00759,5.939962 -8.20013,13.334262 0.18497,-0.178458 3.76097,-3.575546 3.63764,-3.403403 7.64523,-7.110572 4.00758,-3.707168 6.5971,-5.939812 2.58952,-2.285806 6.47379,-5.342383 v 3.561835 q -8.32345,8.562361 -15.10551,16.169166 -6.72041,7.600469 -10.41971,12.126599 -3.63766,4.519806 -4.25421,5.274166 -1.66469,2.031442 -3.0211,3.765446 -1.29476,1.780847 -2.21959,2.726307 -0.86317,0.992303 -1.41807,1.049231 -1.29475,0.132829 -2.34289,-1.992427 -0.98648,-2.07843 -0.98648,-3.779608 0,-1.541687 0.67821,-2.780829 4.43917,-9.067613 19.9146,-31.973103 z"
     style="font-style:italic;font-size:117.25033569px;line-height:1.25;font-family:'Brush Script MT';font-variant-ligatures:normal;font-variant-caps:normal;font-variant-numeric:normal;font-feature-settings:normal;letter-spacing:0px;word-spacing:0px;fill:#1a1a1a;stroke:#d40000;stroke-width:20.52588844"
     id="path261" />
  <path
     d="m 265.63385,40.604252 q -10.8513,11.532942 -10.8513,15.626396 0,2.285954 2.15793,2.06457 1.78799,-0.183431 4.62412,-2.069244 2.8978,-1.945301 9.00166,-6.718115 v 3.668159 q -8.75503,8.340827 -13.44082,12.117574 -4.6858,3.776743 -7.64524,4.080354 -5.05571,0.51867 -5.05571,-5.222794 0,-1.701175 0.61655,-3.412441 0.61655,-1.711266 1.66468,-3.573133 1.1098,-1.921352 3.32938,-5.445088 2.21958,-3.576898 5.11737,-8.073961 -3.51434,1.902229 -8.81668,7.018109 -3.45268,3.224947 -5.85724,6.076557 -2.40454,2.798446 -5.17902,6.272787 -2.71283,3.414852 -4.00759,4.66408 -1.2331,1.189739 -2.52786,1.322569 -1.97296,0.202408 -3.63765,-3.188647 -1.66469,-3.391054 -1.66469,-8.122448 0,-2.923895 0.73986,-4.647811 0.80152,-1.730243 3.08276,-4.994495 4.2542,-6.071586 7.33696,-8.992773 3.08275,-2.974348 5.91888,-3.265309 1.97297,-0.202409 3.14442,0.262191 1.23311,0.458273 1.23311,1.680994 0,0.531617 -0.36994,1.154348 -0.36993,0.62273 -0.86317,1.151788 -0.43159,0.522733 -1.91131,2.056742 -9.7415,10.302692 -9.7415,13.067102 0,1.54169 1.17144,1.421511 0.73986,-0.0759 2.83613,-2.311107 2.15793,-2.294691 5.48731,-5.932281 3.39104,-3.697079 7.95351,-7.780145 4.62414,-4.089391 10.48137,-8.039477 3.26772,-2.302222 5.42565,-2.523606 0.98649,-0.101204 1.91132,2.143033 0.98648,2.237912 0.98648,4.630189 0,1.169558 -2.65117,3.833822 z"
     style="font-style:italic;font-size:117.25033569px;line-height:1.25;font-family:'Brush Script MT';font-variant-ligatures:normal;font-variant-caps:normal;font-variant-numeric:normal;font-feature-settings:normal;letter-spacing:0px;word-spacing:0px;fill:#1a1a1a;stroke:#d40000;stroke-width:20.52588844"
     id="path263" />
  <path
     d="m 65.470226,87.298684 h 56.290384 v 27.336176 q -1.78835,1.95867 -2.63994,3.91734 -0.85159,1.95866 -1.10707,4.76893 -0.25548,2.7251 -0.25548,9.11206 v 15.15837 q 11.24104,-17.54284 13.62551,-21.54533 2.38446,-4.0025 3.23606,-7.06824 0.93675,-3.06574 0.93675,-8.34562 V 87.298684 h 50.75503 v 27.336176 q -2.72511,1.10708 -5.19473,3.91734 -2.46962,2.7251 -6.21664,8.85658 -3.74701,6.04632 -8.43078,13.88099 -4.59861,7.83466 -8.94174,14.56226 8.51594,17.03189 14.4771,29.29485 5.96116,12.1778 8.51594,16.94672 2.55479,4.68377 4.25798,6.38696 1.70318,1.61803 4.34313,2.29931 v 26.14394 h -53.56529 v -19.16087 q 0,-5.62052 -0.85159,-8.94174 -0.76644,-3.32122 -3.23606,-8.34563 -2.46963,-5.10956 -13.71067,-26.6549 0,14.81774 0.0852,20.60858 0.0852,5.79085 0.4258,8.94175 0.42579,3.15089 1.02191,4.25797 0.59612,1.10707 2.46962,3.1509 v 26.14394 H 65.470226 v -26.14394 q 3.406377,-1.36255 4.51345,-5.36505 1.192232,-4.00249 1.192232,-10.13397 L 71.005589,132.6035 q 0,-7.32371 -0.936754,-11.752 -0.936754,-4.42829 -4.598609,-6.21664 z"
     style="font-weight:bold;font-size:174.40652466px;line-height:1.25;font-family:AardvarkBold;font-variant-ligatures:normal;font-variant-caps:normal;font-variant-numeric:normal;font-feature-settings:normal;letter-spacing:0px;word-spacing:0px;fill:#e6e6e6;stroke:#1a1a1a;stroke-width:16.49522781"
     id="path244" />
  <path
     d="m 195.84933,87.298684 h 56.37554 v 27.336176 q -3.32121,1.27739 -4.51345,4.34313 -1.10707,2.98058 -1.10707,7.91983 l 0.25548,78.43184 q 6.04632,0 9.11206,-2.12898 3.06574,-2.12899 4.25797,-6.64244 1.19223,-4.51345 1.36255,-11.41136 0.25548,-6.98308 0.25548,-20.94923 h 42.66488 v 72.72616 H 194.6571 v -26.14394 q 5.27988,-2.21415 5.62052,-9.96366 0,-3.49153 -0.17032,-5.0244 v -67.36112 q 0,-6.98307 -0.59612,-9.53786 -0.59611,-2.55478 -3.66185,-4.25797 z"
     style="font-weight:bold;font-size:174.40652466px;line-height:1.25;font-family:AardvarkBold;font-variant-ligatures:normal;font-variant-caps:normal;font-variant-numeric:normal;font-feature-settings:normal;letter-spacing:0px;word-spacing:0px;fill:#e6e6e6;stroke:#1a1a1a;stroke-width:16.49522781"
     id="path246" />
  <path
     d="M 315.49833,87.298684 H 428.16427 V 139.41626 H 384.222 v -9.53786 q 0,-9.62301 -16.43577,-9.62301 v 27.33617 h 30.2316 v 28.95421 h -30.2316 v 28.78389 q 6.98307,0 10.64493,-1.53287 3.74701,-1.61803 4.76892,-3.83217 1.02192,-2.29931 1.02192,-5.62053 v -10.98556 h 43.94227 v 53.56528 H 315.49833 v -27.42134 q 2.46963,-1.27739 3.32122,-3.49153 0.85159,-2.21415 1.02191,-5.53537 0,-3.15089 -0.17032,-4.68376 v -70.17138 q 0,-8.17531 -4.17281,-12.34812 z"
     style="font-weight:bold;font-size:174.40652466px;line-height:1.25;font-family:AardvarkBold;font-variant-ligatures:normal;font-variant-caps:normal;font-variant-numeric:normal;font-feature-settings:normal;letter-spacing:0px;word-spacing:0px;fill:#e6e6e6;stroke:#1a1a1a;stroke-width:16.49522781"
     id="path248" />
  <path
     d="m 434.97701,87.298684 h 59.18581 v 25.973626 q -3.57669,2.7251 -4.51345,6.21664 -0.93675,3.40638 -0.93675,8.94174 v 65.9134 q 0,5.19473 0.42579,8.09015 0.51096,2.89542 1.44772,4.34313 0.93675,1.36255 3.57669,4.0025 v 26.14394 h -59.18581 v -26.14394 q 5.79085,-4.34314 5.79085,-14.98806 l -0.68128,-67.70176 q 0,-4.85408 -0.93675,-8.85658 -0.93676,-4.08765 -4.17282,-5.96116 z"
     style="font-weight:bold;font-size:174.40652466px;line-height:1.25;font-family:AardvarkBold;font-variant-ligatures:normal;font-variant-caps:normal;font-variant-numeric:normal;font-feature-settings:normal;letter-spacing:0px;word-spacing:0px;fill:#e6e6e6;stroke:#1a1a1a;stroke-width:16.49522781"
     id="path250" />
  <path
     d="m 506.59611,87.298684 h 50.92535 l 25.97362,67.275956 v -26.14395 q 0,-7.66435 -0.68127,-10.30429 -0.59612,-2.7251 -3.32122,-4.85409 V 87.298684 h 48.02992 v 25.973626 q -2.55478,2.46963 -3.66185,4.08765 -1.02192,1.61803 -1.44771,3.32122 -0.34064,1.61803 -0.34064,3.91734 v 3.83217 108.49312 H 576.76749 L 547.81328,169.5627 v 23.41884 q 0,6.47212 0.85159,9.79334 0.93676,3.32122 4.68377,5.36504 v 28.78389 h -46.75253 v -27.42134 q 3.40638,-1.95866 4.42829,-4.51345 1.02192,-2.55478 1.19224,-6.98307 v -5.02441 -63.10314 q 0,-8.68626 -1.02192,-11.66684 -1.02191,-3.06574 -4.59861,-4.93925 z"
     style="font-weight:bold;font-size:174.40652466px;line-height:1.25;font-family:AardvarkBold;font-variant-ligatures:normal;font-variant-caps:normal;font-variant-numeric:normal;font-feature-settings:normal;letter-spacing:0px;word-spacing:0px;fill:#e6e6e6;stroke:#1a1a1a;stroke-width:16.49522781"
     id="path252" />
  <path
     id="path163"
     style="fill:#1a1a1a;stroke-width:3.37050009;paint-order:normal"
     d="M 82.681664,108.11108 V 216.10864 H 610.29973 V 108.11108 H 312.60032 v 46.60727 h -58.55569 v -46.60727 z" />
  <path
     d="m 65.470226,87.298684 h 56.290384 v 27.336176 q -1.78835,1.95867 -2.63994,3.91734 -0.85159,1.95866 -1.10707,4.76893 -0.25548,2.7251 -0.25548,9.11206 v 15.15837 q 11.24104,-17.54284 13.62551,-21.54533 2.38446,-4.0025 3.23606,-7.06824 0.93675,-3.06574 0.93675,-8.34562 V 87.298684 h 50.75503 v 27.336176 q -2.72511,1.10708 -5.19473,3.91734 -2.46962,2.7251 -6.21664,8.85658 -3.74701,6.04632 -8.43078,13.88099 -4.59861,7.83466 -8.94174,14.56226 8.51594,17.03189 14.4771,29.29485 5.96116,12.1778 8.51594,16.94672 2.55479,4.68377 4.25798,6.38696 1.70318,1.61803 4.34313,2.29931 v 26.14394 h -53.56529 v -19.16087 q 0,-5.62052 -0.85159,-8.94174 -0.76644,-3.32122 -3.23606,-8.34563 -2.46963,-5.10956 -13.71067,-26.6549 0,14.81774 0.0852,20.60858 0.0852,5.79085 0.4258,8.94175 0.42579,3.15089 1.02191,4.25797 0.59612,1.10707 2.46962,3.1509 v 26.14394 H 65.470226 v -26.14394 q 3.406377,-1.36255 4.51345,-5.36505 1.192232,-4.00249 1.192232,-10.13397 L 71.005589,132.6035 q 0,-7.32371 -0.936754,-11.752 -0.936754,-4.42829 -4.598609,-6.21664 z"
     style="font-weight:bold;font-size:174.40652466px;line-height:1.25;font-family:AardvarkBold;font-variant-ligatures:normal;font-variant-caps:normal;font-variant-numeric:normal;font-feature-settings:normal;letter-spacing:0px;word-spacing:0px;fill:#d40000;stroke:#cccccc;stroke-width:4.36007881"
     id="path321" />
  <path
     d="m 195.84933,87.298684 h 56.37554 v 27.336176 q -3.32121,1.27739 -4.51345,4.34313 -1.10707,2.98058 -1.10707,7.91983 l 0.25548,78.43184 q 6.04632,0 9.11206,-2.12898 3.06574,-2.12899 4.25797,-6.64244 1.19223,-4.51345 1.36255,-11.41136 0.25548,-6.98308 0.25548,-20.94923 h 42.66488 v 72.72616 H 194.6571 v -26.14394 q 5.27988,-2.21415 5.62052,-9.96366 0,-3.49153 -0.17032,-5.0244 v -67.36112 q 0,-6.98307 -0.59612,-9.53786 -0.59611,-2.55478 -3.66185,-4.25797 z"
     style="font-weight:bold;font-size:174.40652466px;line-height:1.25;font-family:AardvarkBold;font-variant-ligatures:normal;font-variant-caps:normal;font-variant-numeric:normal;font-feature-settings:normal;letter-spacing:0px;word-spacing:0px;fill:#d40000;stroke:#cccccc;stroke-width:4.36007881"
     id="path323" />
  <path
     d="M 315.49833,87.298684 H 428.16427 V 139.41626 H 384.222 v -9.53786 q 0,-9.62301 -16.43577,-9.62301 v 27.33617 h 30.2316 v 28.95421 h -30.2316 v 28.78389 q 6.98307,0 10.64493,-1.53287 3.74701,-1.61803 4.76892,-3.83217 1.02192,-2.29931 1.02192,-5.62053 v -10.98556 h 43.94227 v 53.56528 H 315.49833 v -27.42134 q 2.46963,-1.27739 3.32122,-3.49153 0.85159,-2.21415 1.02191,-5.53537 0,-3.15089 -0.17032,-4.68376 v -70.17138 q 0,-8.17531 -4.17281,-12.34812 z"
     style="font-weight:bold;font-size:174.40652466px;line-height:1.25;font-family:AardvarkBold;font-variant-ligatures:normal;font-variant-caps:normal;font-variant-numeric:normal;font-feature-settings:normal;letter-spacing:0px;word-spacing:0px;fill:#d40000;stroke:#cccccc;stroke-width:4.36007881"
     id="path325" />
  <path
     d="m 434.97701,87.298684 h 59.18581 v 25.973626 q -3.57669,2.7251 -4.51345,6.21664 -0.93675,3.40638 -0.93675,8.94174 v 65.9134 q 0,5.19473 0.42579,8.09015 0.51096,2.89542 1.44772,4.34313 0.93675,1.36255 3.57669,4.0025 v 26.14394 h -59.18581 v -26.14394 q 5.79085,-4.34314 5.79085,-14.98806 l -0.68128,-67.70176 q 0,-4.85408 -0.93675,-8.85658 -0.93676,-4.08765 -4.17282,-5.96116 z"
     style="font-weight:bold;font-size:174.40652466px;line-height:1.25;font-family:AardvarkBold;font-variant-ligatures:normal;font-variant-caps:normal;font-variant-numeric:normal;font-feature-settings:normal;letter-spacing:0px;word-spacing:0px;fill:#d40000;stroke:#cccccc;stroke-width:4.36007881"
     id="path327" />
  <path
     d="m 506.59611,87.298684 h 50.92535 l 25.97362,67.275956 v -26.14395 q 0,-7.66435 -0.68127,-10.30429 -0.59612,-2.7251 -3.32122,-4.85409 V 87.298684 h 48.02992 v 25.973626 q -2.55478,2.46963 -3.66185,4.08765 -1.02192,1.61803 -1.44771,3.32122 -0.34064,1.61803 -0.34064,3.91734 v 3.83217 108.49312 H 576.76749 L 547.81328,169.5627 v 23.41884 q 0,6.47212 0.85159,9.79334 0.93676,3.32122 4.68377,5.36504 v 28.78389 h -46.75253 v -27.42134 q 3.40638,-1.95866 4.42829,-4.51345 1.02192,-2.55478 1.19224,-6.98307 v -5.02441 -63.10314 q 0,-8.68626 -1.02192,-11.66684 -1.02191,-3.06574 -4.59861,-4.93925 z"
     style="font-weight:bold;font-size:174.40652466px;line-height:1.25;font-family:AardvarkBold;font-variant-ligatures:normal;font-variant-caps:normal;font-variant-numeric:normal;font-feature-settings:normal;letter-spacing:0px;word-spacing:0px;fill:#d40000;stroke:#cccccc;stroke-width:4.36007881"
     id="path329" />
  <path
     d="m 29.316693,44.487268 q 0,0.372132 0.801517,0.289904 0.554896,-0.05693 4.994065,-1.150286 4.500825,-1.099683 8.138477,-1.526035 -4.069238,1.374378 -7.028685,2.688063 -2.897791,1.254197 -6.042202,2.799504 -3.082757,1.48582 -4.439169,2.05027 -1.356413,0.511288 -2.342895,0.612492 -3.144411,0.322587 -3.144411,-3.186087 0,-9.037495 5.302341,-13.249625 2.157929,-1.709912 6.905373,-4.217102 4.8091,-2.566676 10.789648,-4.987724 6.042203,-2.480535 13.255852,-4.549632 7.21365,-2.069097 14.242335,-2.790175 7.213649,-0.740054 13.255852,0.447571 6.042203,1.187624 10.111441,4.066186 4.069238,2.825398 6.227168,7.335409 2.21958,4.503685 2.21958,10.404637 0,8.984332 -6.042199,18.056922 -5.980546,9.066263 -16.030332,16.583009 -9.988131,7.45726 -22.565777,12.522093 -12.577646,5.064829 -24.785361,6.317228 -2.281239,0.234034 -3.637652,-0.0521 -1.294758,-0.292464 -1.849655,-1.511421 -0.554896,-1.165796 -0.554896,-3.611233 0,-3.030219 0.554896,-5.000968 0.554897,-1.97075 1.849655,-4.602181 8.878338,-17.869428 30.889218,-45.857818 -4.439169,0.880711 -9.74151,2.647403 -5.302341,1.713529 -10.049786,3.63594 -4.747445,1.92241 -8.015166,3.586692 -3.267722,1.664281 -3.267722,2.24906 z M 62.178876,31.865771 q 0,0.106323 0.246621,1.197418 0.24662,1.037934 0.24662,1.83536 0,1.22272 -1.479723,3.607318 -1.418068,2.325112 -5.672272,8.396697 -4.254204,6.071585 -7.275305,10.634462 -3.021102,4.562875 -7.151995,11.685045 -1.294757,2.259298 -1.787998,3.054165 -0.493241,0.794866 -1.603034,2.609896 -1.048137,1.808704 -1.541378,3.082026 -0.493241,1.273322 -0.493241,1.911262 0,1.382206 1.726344,1.789877 1.787999,0.348186 5.05572,0.01295 8.385097,-0.860234 17.756677,-4.426596 9.371579,-3.619524 17.571711,-9.139014 8.261787,-5.525816 13.194198,-11.932787 4.93241,-6.406972 4.93241,-12.839541 0,-7.336319 -6.227168,-10.631437 -6.227168,-3.34828 -18.126608,-2.127507 -4.994065,0.512345 -9.371579,1.280408 z"
     style="font-style:italic;font-size:117.25033569px;line-height:1.25;font-family:'Brush Script MT';font-variant-ligatures:normal;font-variant-caps:normal;font-variant-numeric:normal;font-feature-settings:normal;letter-spacing:0px;word-spacing:0px;fill:#1a1a1a;stroke:#1a1a1a;stroke-width:13.10960484"
     id="path310" />
  <path
     d="m 95.650655,58.149282 q 9.371575,-8.297756 18.188265,-12.764103 8.81668,-4.466346 13.62578,-4.959715 1.29476,-0.13283 2.40455,0.710226 1.10979,0.789896 1.72634,1.949363 0.67821,1.153141 0.67821,1.737921 0,0.95691 -0.86317,1.523921 -0.86318,0.513847 -3.02111,1.373171 0.43159,0.806311 1.10979,2.065777 0.67822,1.259465 1.04814,2.072102 0.36994,0.759474 0.36994,1.397415 0,1.275881 -3.0211,5.094491 -2.95945,3.759125 -4.19255,5.533644 -1.17145,1.768193 -1.17145,4.16047 0,3.933969 4.19254,3.503853 4.31586,-0.442767 13.50248,-8.349416 v 3.242866 q -15.59875,16.538733 -22.31916,17.228184 -2.40454,0.246684 -3.45268,-1.027992 -0.98648,-1.22784 -0.98648,-3.885925 0,-4.199776 3.51433,-12.534574 -9.00164,9.535685 -13.37915,13.652938 -4.377518,4.064094 -7.213654,4.355056 -1.356413,0.139155 -3.391032,-1.672262 -2.034619,-1.811413 -3.637653,-4.83666 -1.541378,-3.084735 -1.541378,-6.540247 0,-2.498601 0.554896,-4.203542 0.554896,-1.758102 2.15793,-3.676896 1.603034,-1.918793 5.117376,-5.150066 z m 29.532815,-8.877584 q -16.03034,7.97081 -22.87406,13.085337 -6.782065,5.108201 -6.782065,9.786432 0,1.701175 0.678206,2.747994 0.678207,0.993657 1.849653,0.873477 0.678207,-0.06958 2.404546,-0.990949 6.47379,-3.960177 11.83779,-9.773485 5.364,-5.86647 12.88593,-15.728806 z"
     style="font-style:italic;font-size:117.25033569px;line-height:1.25;font-family:'Brush Script MT';font-variant-ligatures:normal;font-variant-caps:normal;font-variant-numeric:normal;font-feature-settings:normal;letter-spacing:0px;word-spacing:0px;fill:#1a1a1a;stroke:#1a1a1a;stroke-width:13.10960484"
     id="path312" />
  <path
     d="m 139.11752,67.299386 v -3.455512 q 3.32938,-3.743915 5.05572,-6.313299 -1.97296,-0.382372 -2.89779,-1.13808 -0.86317,-0.762035 -0.86317,-2.46321 0,-1.913823 1.84965,-5.027475 1.84966,-3.113653 4.56249,-5.943727 2.71282,-2.830074 4.9324,-3.802047 0.86317,-0.460685 1.66469,-0.542913 1.2331,-0.126505 1.2331,0.883568 0,0.903749 -1.9113,3.864241 12.70095,-3.004175 16.03032,-3.345739 1.29477,-0.13283 1.78801,0.02922 1.04813,0.370927 1.72634,2.055685 0.67821,1.68476 0.67821,3.439097 0,1.116397 -1.17145,2.565619 -1.10979,1.389737 -3.88427,4.172973 -3.26772,3.365457 -5.48732,7.155003 -2.21958,3.789545 -2.21958,5.597044 0,2.4986 3.576,2.131736 3.76096,-0.385841 13.07089,-7.933007 v 3.561836 q -5.11737,5.150066 -8.44675,8.149716 -3.32939,2.99965 -6.16552,4.885463 -2.83613,1.832649 -5.05572,2.060357 -2.58951,0.265661 -4.31585,-1.577375 -1.72635,-1.896201 -1.72635,-5.777007 0,-2.285955 1.35641,-5.349005 1.35642,-3.063051 3.94593,-6.731062 2.65117,-3.727498 5.91889,-7.465086 -1.72634,0.496077 -3.88427,1.089593 -2.15793,0.540354 -4.56248,1.15917 -2.40455,0.618817 -3.69931,0.964294 -3.82261,6.98422 -11.09792,13.099934 z"
     style="font-style:italic;font-size:117.25033569px;line-height:1.25;font-family:'Brush Script MT';font-variant-ligatures:normal;font-variant-caps:normal;font-variant-numeric:normal;font-feature-settings:normal;letter-spacing:0px;word-spacing:0px;fill:#1a1a1a;stroke:#1a1a1a;stroke-width:13.10960484"
     id="path314" />
  <path
     d="m 205.15017,58.5049 -10.97461,9.153315 q -7.8302,6.704256 -10.48137,6.976242 -2.40456,0.246685 -5.05573,-4.212722 -2.65117,-4.51257 -2.65117,-8.074405 0,-3.030219 1.04814,-5.211056 1.10979,-2.240323 3.76096,-5.861498 3.76097,-4.904587 7.21366,-8.395343 3.45268,-3.490757 6.10385,-5.463917 2.65117,-2.026323 3.69931,-2.133853 1.66469,-0.170781 3.20607,1.159616 1.60303,1.324072 1.60303,2.918924 0,1.010073 -1.72634,3.419972 -1.6647,2.403576 -5.36399,6.238602 -3.63766,3.775541 -10.1731,9.230573 l -1.17145,3.044074 q -0.49324,0.90119 -0.49324,1.53913 0,1.435367 1.66469,1.264585 1.72634,-0.177106 8.07682,-4.60309 6.41213,-4.432308 13.8724,-11.57707 2.89779,-2.795888 4.8091,-4.905792 1.91131,-2.109906 3.45269,-3.916051 1.54137,-1.859306 2.52785,-2.811098 1.04814,-0.958117 1.84966,-1.093507 1.54138,-0.317616 2.40455,0.869712 0.86318,1.187327 0.86318,3.685929 0,1.435367 -1.47973,3.766804 -1.47973,2.278275 -5.54896,7.905591 -4.06924,5.574155 -8.13848,11.573601 -4.00759,5.939962 -8.20013,13.334262 0.18497,-0.178458 3.76097,-3.575546 3.63764,-3.403403 7.64523,-7.110572 4.00758,-3.707168 6.5971,-5.939812 2.58952,-2.285806 6.47379,-5.342383 v 3.561835 q -8.32345,8.562361 -15.10551,16.169166 -6.72041,7.600469 -10.41971,12.126599 -3.63766,4.519806 -4.25421,5.274166 -1.66469,2.031442 -3.0211,3.765446 -1.29476,1.780847 -2.21959,2.726307 -0.86317,0.992303 -1.41807,1.049231 -1.29475,0.132829 -2.34289,-1.992427 -0.98648,-2.07843 -0.98648,-3.779608 0,-1.541687 0.67821,-2.780829 4.43917,-9.067613 19.9146,-31.973103 z"
     style="font-style:italic;font-size:117.25033569px;line-height:1.25;font-family:'Brush Script MT';font-variant-ligatures:normal;font-variant-caps:normal;font-variant-numeric:normal;font-feature-settings:normal;letter-spacing:0px;word-spacing:0px;fill:#1a1a1a;stroke:#1a1a1a;stroke-width:13.10960484"
     id="path316" />
  <path
     d="m 265.63385,40.604252 q -10.8513,11.532942 -10.8513,15.626396 0,2.285954 2.15793,2.06457 1.78799,-0.183431 4.62412,-2.069244 2.8978,-1.945301 9.00166,-6.718115 v 3.668159 q -8.75503,8.340827 -13.44082,12.117574 -4.6858,3.776743 -7.64524,4.080354 -5.05571,0.51867 -5.05571,-5.222794 0,-1.701175 0.61655,-3.412441 0.61655,-1.711266 1.66468,-3.573133 1.1098,-1.921352 3.32938,-5.445088 2.21958,-3.576898 5.11737,-8.073961 -3.51434,1.902229 -8.81668,7.018109 -3.45268,3.224947 -5.85724,6.076557 -2.40454,2.798446 -5.17902,6.272787 -2.71283,3.414852 -4.00759,4.66408 -1.2331,1.189739 -2.52786,1.322569 -1.97296,0.202408 -3.63765,-3.188647 -1.66469,-3.391054 -1.66469,-8.122448 0,-2.923895 0.73986,-4.647811 0.80152,-1.730243 3.08276,-4.994495 4.2542,-6.071586 7.33696,-8.992773 3.08275,-2.974348 5.91888,-3.265309 1.97297,-0.202409 3.14442,0.262191 1.23311,0.458273 1.23311,1.680994 0,0.531617 -0.36994,1.154348 -0.36993,0.62273 -0.86317,1.151788 -0.43159,0.522733 -1.91131,2.056742 -9.7415,10.302692 -9.7415,13.067102 0,1.54169 1.17144,1.421511 0.73986,-0.0759 2.83613,-2.311107 2.15793,-2.294691 5.48731,-5.932281 3.39104,-3.697079 7.95351,-7.780145 4.62414,-4.089391 10.48137,-8.039477 3.26772,-2.302222 5.42565,-2.523606 0.98649,-0.101204 1.91132,2.143033 0.98648,2.237912 0.98648,4.630189 0,1.169558 -2.65117,3.833822 z"
     style="font-style:italic;font-size:117.25033569px;line-height:1.25;font-family:'Brush Script MT';font-variant-ligatures:normal;font-variant-caps:normal;font-variant-numeric:normal;font-feature-settings:normal;letter-spacing:0px;word-spacing:0px;fill:#1a1a1a;stroke:#1a1a1a;stroke-width:13.10960484"
     id="path318" />
  <path
     d="m 27.533216,43.610554 q 0,0.372132 0.801517,0.289904 0.554896,-0.05693 4.994065,-1.150286 4.500825,-1.099684 8.138477,-1.526035 -4.069238,1.374378 -7.028684,2.688062 -2.897792,1.254198 -6.042203,2.799505 -3.082756,1.485821 -4.439169,2.05027 -1.356413,0.511287 -2.342894,0.612491 -3.144412,0.322588 -3.144412,-3.186086 0,-9.037494 5.302341,-13.249624 2.15793,-1.709912 6.905374,-4.217103 4.809099,-2.566676 10.789647,-4.987724 6.042203,-2.480535 13.255852,-4.549631 7.213651,-2.069098 14.242335,-2.790176 7.21365,-0.740054 13.255852,0.447571 6.042203,1.187625 10.111441,4.066185 4.069238,2.8254 6.227168,7.335409 2.219587,4.503686 2.219587,10.404638 0,8.984332 -6.042205,18.056922 -5.980547,9.066263 -16.030333,16.58301 -9.988131,7.457259 -22.565777,12.522092 -12.577645,5.064836 -24.785361,6.317235 -2.281239,0.234034 -3.637652,-0.0521 -1.294758,-0.292465 -1.849654,-1.511421 -0.554896,-1.165792 -0.554896,-3.611231 0,-3.030218 0.554896,-5.000968 0.554896,-1.970749 1.849654,-4.602181 8.878338,-17.869428 30.889219,-45.857818 -4.439169,0.880711 -9.74151,2.647403 -5.302341,1.713529 -10.049786,3.635939 -4.747445,1.922411 -8.015166,3.586693 -3.267723,1.664281 -3.267723,2.24906 z M 60.395399,30.989056 q 0,0.106324 0.246621,1.19742 0.24662,1.037933 0.24662,1.835358 0,1.222721 -1.479723,3.60732 -1.418067,2.32511 -5.672271,8.396696 -4.254205,6.071585 -7.275306,10.634461 -3.021101,4.562876 -7.151994,11.685045 -1.294758,2.2593 -1.787999,3.054166 -0.493241,0.794866 -1.603034,2.609895 -1.048136,1.808705 -1.541377,3.082027 -0.493241,1.273321 -0.493241,1.911262 0,1.382206 1.726344,1.789877 1.787998,0.348186 5.055719,0.01295 8.385098,-0.860234 17.756678,-4.426596 9.371579,-3.619524 17.571711,-9.139015 8.261786,-5.525815 13.194197,-11.932787 4.93241,-6.406971 4.93241,-12.83954 0,-7.33632 -6.227168,-10.631437 -6.227168,-3.34828 -18.126608,-2.127508 -4.994065,0.512345 -9.371579,1.280408 z"
     style="font-style:italic;font-size:117.25033569px;line-height:1.25;font-family:'Brush Script MT';font-variant-ligatures:normal;font-variant-caps:normal;font-variant-numeric:normal;font-feature-settings:normal;letter-spacing:0px;word-spacing:0px;fill:#999999;stroke:#cccccc;stroke-width:2.59522724"
     id="path299" />
  <path
     d="m 93.867178,57.272568 q 9.371582,-8.297757 18.188262,-12.764102 8.81668,-4.466346 13.62578,-4.959715 1.29476,-0.132831 2.40456,0.710225 1.10979,0.789896 1.72634,1.949363 0.6782,1.153142 0.6782,1.737922 0,0.95691 -0.86316,1.523918 -0.86318,0.513848 -3.02111,1.373173 0.43159,0.80631 1.10979,2.065777 0.67821,1.259465 1.04814,2.072101 0.36993,0.759474 0.36993,1.397415 0,1.275882 -3.0211,5.094493 -2.95944,3.759124 -4.19255,5.533644 -1.17145,1.768193 -1.17145,4.16047 0,3.933969 4.19255,3.503852 4.31586,-0.442768 13.50248,-8.349417 v 3.242866 q -15.59875,16.538731 -22.31916,17.228182 -2.40455,0.246685 -3.45269,-1.027991 -0.98649,-1.227835 -0.98649,-3.885922 0,-4.199777 3.51435,-12.534576 -9.00165,9.535687 -13.37916,13.652938 -4.377515,4.064093 -7.213651,4.355054 -1.356413,0.139155 -3.391031,-1.672259 -2.03462,-1.811413 -3.637654,-4.83666 -1.541377,-3.084735 -1.541377,-6.540247 0,-2.498601 0.554896,-4.203542 0.554896,-1.758102 2.157929,-3.676896 1.603034,-1.918794 5.117376,-5.150066 z m 29.532802,-8.877584 q -16.03033,7.97081 -22.87405,13.085337 -6.782063,5.1082 -6.782063,9.786433 0,1.701175 0.678207,2.747993 0.678207,0.993657 1.849654,0.873478 0.678206,-0.06958 2.40455,-0.990949 6.473792,-3.960179 11.837782,-9.773486 5.364,-5.86647 12.88592,-15.728806 z"
     style="font-style:italic;font-size:117.25033569px;line-height:1.25;font-family:'Brush Script MT';font-variant-ligatures:normal;font-variant-caps:normal;font-variant-numeric:normal;font-feature-settings:normal;letter-spacing:0px;word-spacing:0px;fill:#999999;stroke:#cccccc;stroke-width:2.59522724"
     id="path301" />
  <path
     d="M 137.33404,66.422672 V 62.96716 q 3.32938,-3.743914 5.05572,-6.313299 -1.97296,-0.382372 -2.89779,-1.13808 -0.86317,-0.762035 -0.86317,-2.46321 0,-1.913822 1.84966,-5.027475 1.84965,-3.113653 4.56247,-5.943726 2.71283,-2.830074 4.93241,-3.802047 0.86318,-0.460686 1.66469,-0.542914 1.23311,-0.126505 1.23311,0.883568 0,0.903749 -1.91132,3.864242 12.70097,-3.004177 16.03034,-3.34574 1.29476,-0.13283 1.788,0.02922 1.04813,0.370927 1.72634,2.055686 0.67821,1.684759 0.67821,3.439095 0,1.116397 -1.17145,2.565621 -1.1098,1.389735 -3.88427,4.172973 -3.26773,3.365457 -5.48731,7.155001 -2.21958,3.789545 -2.21958,5.597044 0,2.498601 3.576,2.131736 3.76096,-0.38584 13.07088,-7.933006 v 3.561836 q -5.11738,5.150066 -8.44675,8.149716 -3.32938,2.999649 -6.16551,4.885463 -2.83614,1.832656 -5.05573,2.060365 -2.58951,0.265659 -4.31586,-1.577383 -1.72634,-1.8962 -1.72634,-5.777007 0,-2.285954 1.35642,-5.349005 1.35641,-3.06305 3.94592,-6.731062 2.65118,-3.727498 5.9189,-7.465087 -1.72634,0.496078 -3.88427,1.089593 -2.15793,0.540355 -4.56249,1.159172 -2.40454,0.618816 -3.6993,0.964292 -3.82263,6.984222 -11.09793,13.099935 z"
     style="font-style:italic;font-size:117.25033569px;line-height:1.25;font-family:'Brush Script MT';font-variant-ligatures:normal;font-variant-caps:normal;font-variant-numeric:normal;font-feature-settings:normal;letter-spacing:0px;word-spacing:0px;fill:#999999;stroke:#cccccc;stroke-width:2.59522724"
     id="path303" />
  <path
     d="m 203.36669,57.628185 -10.97461,9.153316 q -7.8302,6.704258 -10.48137,6.976244 -2.40455,0.246684 -5.05572,-4.212724 -2.65117,-4.51257 -2.65117,-8.074406 0,-3.030218 1.04814,-5.211055 1.10979,-2.240323 3.76096,-5.861498 3.76096,-4.904587 7.21365,-8.395343 3.45269,-3.490757 6.10386,-5.463917 2.65116,-2.026323 3.6993,-2.133852 1.66469,-0.170781 3.20607,1.159616 1.60303,1.324072 1.60303,2.918924 0,1.010073 -1.72634,3.419972 -1.66469,2.403574 -5.364,6.238602 -3.63765,3.77554 -10.1731,9.230572 l -1.17144,3.044074 q -0.49324,0.90119 -0.49324,1.539131 0,1.435367 1.66468,1.264585 1.72636,-0.177107 8.07683,-4.60309 6.41213,-4.432309 13.8724,-11.577071 2.89779,-2.795888 4.8091,-4.905794 1.91131,-2.109904 3.45269,-3.916049 1.54138,-1.859306 2.52786,-2.811098 1.04814,-0.958117 1.84965,-1.093506 1.54138,-0.317617 2.40456,0.869711 0.86316,1.187328 0.86316,3.68593 0,1.435367 -1.47971,3.766802 -1.47973,2.278276 -5.54897,7.905592 -4.06924,5.574153 -8.13848,11.573602 -4.00758,5.939961 -8.20013,13.334268 0.18496,-0.178467 3.76096,-3.575547 3.63766,-3.403409 7.64524,-7.110577 4.00759,-3.707169 6.5971,-5.939812 2.58951,-2.285806 6.47378,-5.342383 v 3.561835 q -8.32343,8.562359 -15.1055,16.169163 -6.72041,7.600478 -10.41972,12.126609 -3.63765,4.519796 -4.2542,5.274156 -1.66469,2.031442 -3.0211,3.765445 -1.29476,1.780849 -2.21958,2.726316 -0.86318,0.992304 -1.41807,1.049231 -1.29476,0.13283 -2.34289,-1.992436 -0.98649,-2.07843 -0.98649,-3.779599 0,-1.541696 0.67821,-2.780827 4.43916,-9.067623 19.9146,-31.973112 z"
     style="font-style:italic;font-size:117.25033569px;line-height:1.25;font-family:'Brush Script MT';font-variant-ligatures:normal;font-variant-caps:normal;font-variant-numeric:normal;font-feature-settings:normal;letter-spacing:0px;word-spacing:0px;fill:#999999;stroke:#cccccc;stroke-width:2.59522724"
     id="path305" />
  <path
     d="m 263.85036,39.727539 q -10.8513,11.532942 -10.8513,15.626396 0,2.285954 2.15793,2.06457 1.78801,-0.183433 4.62414,-2.069245 2.89779,-1.945301 9.00165,-6.718116 v 3.66816 q -8.75503,8.340828 -13.44081,12.117574 -4.6858,3.776749 -7.64524,4.08036 -5.05573,0.518671 -5.05573,-5.222799 0,-1.701175 0.61655,-3.412442 0.61656,-1.711266 1.66469,-3.573132 1.1098,-1.921354 3.32939,-5.44509 2.21958,-3.576898 5.11737,-8.07396 -3.51434,1.902228 -8.81668,7.018108 -3.4527,3.224949 -5.85724,6.076557 -2.40456,2.798448 -5.17904,6.272789 -2.71282,3.414852 -4.00758,4.664078 -1.2331,1.18974 -2.52786,1.322571 -1.97296,0.202407 -3.63764,-3.188648 -1.6647,-3.391053 -1.6647,-8.122447 0,-2.923895 0.73987,-4.647813 0.80151,-1.730241 3.08276,-4.994494 4.25419,-6.071585 7.33695,-8.992772 3.08276,-2.97435 5.91889,-3.265311 1.97297,-0.202408 3.14442,0.262192 1.2331,0.458274 1.2331,1.680994 0,0.531617 -0.36994,1.154348 -0.36992,0.62273 -0.86316,1.151787 -0.43159,0.522733 -1.91132,2.056744 -9.74151,10.302692 -9.74151,13.067102 0,1.54169 1.17145,1.42151 0.73987,-0.0759 2.83614,-2.311107 2.15793,-2.294692 5.48731,-5.932282 3.39103,-3.697077 7.95351,-7.780144 4.62413,-4.08939 10.48137,-8.039478 3.26772,-2.302222 5.42565,-2.523606 0.98648,-0.101204 1.91131,2.143034 0.98648,2.237913 0.98648,4.63019 0,1.169558 -2.65118,3.833822 z"
     style="font-style:italic;font-size:117.25033569px;line-height:1.25;font-family:'Brush Script MT';font-variant-ligatures:normal;font-variant-caps:normal;font-variant-numeric:normal;font-feature-settings:normal;letter-spacing:0px;word-spacing:0px;fill:#999999;stroke:#cccccc;stroke-width:2.59522724"
     id="path307" />
</svg>
