<?xml version="1.0" encoding="UTF-8"?>
<!-- Created with Inkscape (http://www.inkscape.org/) -->
<svg width="830.26mm" height="248.31mm" version="1.1" viewBox="0 0 830.26 248.31" xmlns="http://www.w3.org/2000/svg" xmlns:cc="http://creativecommons.org/ns#" xmlns:dc="http://purl.org/dc/elements/1.1/" xmlns:rdf="http://www.w3.org/1999/02/22-rdf-syntax-ns#">
 <metadata>
  <rdf:RDF>
   <cc:Work rdf:about="">
    <dc:format>image/svg+xml</dc:format>
    <dc:type rdf:resource="http://purl.org/dc/dcmitype/StillImage"/>
    <dc:title/>
   </cc:Work>
  </rdf:RDF>
 </metadata>
 <g transform="translate(435.16 -24.679)">
  <g transform="matrix(.96956 0 0 .96956 -120.32 5.2663)">
   <g transform="matrix(4.9133 0 0 3.8032 -404.76 -408.55)" font-family="Kimberley" font-size="45.22px" font-weight="900" letter-spacing="0px" word-spacing="0px">
    <text x="21.773891" y="152.20532" fill="#000000" stroke="#1a1a1a" stroke-width="7.26" style="font-feature-settings:normal;font-variant-caps:normal;font-variant-ligatures:normal;font-variant-numeric:normal;line-height:1.25" xml:space="preserve"><tspan x="21.773891" y="152.20532" font-family="Kimberley" font-size="45.22px" font-weight="900" stroke="#1a1a1a" stroke-width="7.26" style="font-feature-settings:normal;font-variant-caps:normal;font-variant-ligatures:normal;font-variant-numeric:normal">WILSON</tspan></text>
    <text x="21.773891" y="152.20534" fill="#000000" stroke="#aa0000" stroke-width="4.0563" style="font-feature-settings:normal;font-variant-caps:normal;font-variant-ligatures:normal;font-variant-numeric:normal;line-height:1.25" xml:space="preserve"><tspan x="21.773891" y="152.20534" font-family="Kimberley" font-size="45.22px" font-weight="900" stroke="#aa0000" stroke-width="4.0563" style="font-feature-settings:normal;font-variant-caps:normal;font-variant-ligatures:normal;font-variant-numeric:normal">WILSON</tspan></text>
    <text x="21.773891" y="152.20532" fill="#e6e6e6" stroke="#1a1a1a" stroke-width="1.1305" style="font-feature-settings:normal;font-variant-caps:normal;font-variant-ligatures:normal;font-variant-numeric:normal;line-height:1.25" xml:space="preserve"><tspan x="21.773891" y="152.20532" fill="#e6e6e6" font-family="Kimberley" font-size="45.22px" font-weight="900" stroke="#1a1a1a" stroke-width="1.1305" style="font-feature-settings:normal;font-variant-caps:normal;font-variant-ligatures:normal;font-variant-numeric:normal">WILSON</tspan></text>
   </g>
   <path d="m143.91 179.86c-12.368 3.8382-3.0509-11.025-17.894-6.1961h-51.14c-0.55363 4.1618 1.3889 20.637-0.52025 18.062-6.7714-15.181-26.748-20.977-41.549-14.789-1.5901-0.87075-5.2379-8.0939-15.048-4.2999-19.711 0.9601-39.422 1.923-59.134 2.8831-2.1708 3.2907-10.429 1.6882-14.746 2.8899-9.5284 0.77783-19.057 1.5559-28.585 2.3348-2.081 3.5628-7.3526-2.8151-11.379-2.3965-8.1961-2.0128-16.931 0.88854-24.164 3.4675-11.936-6.995-26.064-6.3568-39.235-8.4293-8.73-0.18819-17.46-0.37638-26.19-0.56452 2.8252 9.0957-13.544 3.3699-19.247 5.88-5.0043-0.50968-20.701 6.4792-15.772-3.6908-5.0143-3.1231-17.337-0.46582-25.185-1.3479h-36.972c-0.28576 24.099 2.3806 48.107 0.71674 72.189 2.0833 6.6892-5.3452 22.448 5.5353 20.749 25.37 1.0512 50.74 2.1041 76.109 3.1581 3.9044-3.7737 15.965-1.7547 22.893-3.3807 7.9296-0.86791 18.19-0.44334 22.432-4.1956 20.885 8.2699 45.205 14.479 67.073 5.9353 5.5658-1.2474 8.7205-8.0014 14.634-6.9488 2.1729 5.4079 16.557-0.22094 23.595 0.78971 8.177-0.81591 14.664 1.0947 23.559 0.24342 18.214-0.20285 36.428-0.40815 54.642-0.61516-2.7097-8.3135 1.4105-4.5738 5.8225-2.3328 5.9977 0.85076 7.4632 5.5516 13.245 5.0322 21.673 1.5029 42.894 2.9241 64.619 4.3822 4.9428-1.6215 16.309 0.39446 23.771 0.19992 5.7961-1.8881 23.149 5.5988 20.391-3.2289-2.866-9.9721 11.987-0.21556 18.422-3.1953 8.3697 0.21898 16.777-0.33923 25.114 0.56231-2.8204 11.481 13.189 2.7797 19.664 4.2981 13.39-0.29523 27.346-5.3188 39.865 1.4082 18.771 4.7061 41.604 6.5488 57.486-6.6333 7.897 0.12366 17.705-1.0832 22.84 1.2436 17.257-0.97633 34.55-1.8965 51.413-2.7517 4.4836 4.0584 16.557-0.27373 23.848 1.9409 9.4986-1.3079 22.566-1.3809 32.683-0.16815 22.464-0.24977 44.929-0.50175 67.393-0.75715-1.4465-14.607-2.8915-29.214-4.342-43.821 11.762-0.25223 6.9241-11.861 7.3898-19.841-0.29768-8.6362-0.59467-17.272-0.89211-25.909-24.228 1.372-49.291 2.016-72.994 3.8493 0.5082-8.5123-15.577-0.99163-22.222-2.5928-11.493 0.74088-22.985 1.4813-34.478 2.222 1.864 9.2938-14.364-0.50376-20.232 0.62942-5.6533-4.4215-12.249-4.4164-21.623-3.2808-18.296 0.89167-36.592 1.785-54.888 2.6763 0.3793 4.5608-7.3488 1.9571-10.336 4.4664-5.5712 4.1588-6.9886-2.7903-14.054-2.8046-5.6785-1.7818-11.437-3.7356-17.458-3.7844-0.33971-5.4246-15.594 0.39642-21.975-0.47315-19.872 2.1738-42.276 3.6368-63.007-0.40571-6.3288 1.0623-23.339-7.6134-21.394 0.99207 0.50019 2.1162 0.99974 4.2325 1.4997 6.3487zm-108.48 37.788c-7.1995-4.9235-2.2611-16.014-4.1731-23.597 4.2463-3.0112 2.0284 14.279 3.7539 19.129 0.13975 1.4894 0.27954 2.9787 0.41924 4.4681zm-243.17-20.049c-0.0279 6.3243 0.62711 12.622 0.90491 18.934-9.4361-3.7781-18.103-7.7083-6.4939-15.647 1.8534-0.89861 3.9561-7.6234 5.589-3.2876zm138.65 1.962c-0.48196 10.706-3.2053-12.815 0 0zm217.67 0.0748c1.3995 6.13 3.1265 12.179 4.8926 18.212-4.9725-4.3777-22.985-6.1777-11.854-13.739 2.05-0.95707 7.052-11.59 6.9609-4.473zm-96.367 14.7c5.0851 0.58832 9.2093 3.4586 11.025 9.337 0.26884 9.8505-8.4495 13.754-17.032 11.521-10.8 5.0538-12.101-10.537-6.2265-14.22-0.89854-0.48958-3.8908-5.5557 5.304-6.4976 2.2887-0.41352 4.6279-0.51934 6.9294-0.14126zm3.9462 1.6106c-0.32261 0.29524 0.33688-0.27519 0 0zm-1.8154 1.392c-0.35966 0.25613 0.3687-0.23609 0 0zm-2.0035 1.1816c-0.37897 0.21067 0.42741-0.2053 0 0zm-1.8098 0.80808c-0.44608 0.18477 0.4496-0.15935 0 0zm-1.9454 0.63094c-0.41846 0.12123 0.54887-0.13979 0 0zm-1.1872 0.26835c-0.54913 0.11341 0.49524-0.0811 0 0zm-4.3254 0.26004c-0.27974-0.0797-1.3211-0.1046 0 0zm2.7092-0.0293c-0.4953 0.0631 0.61953-0.0508 0 0zm-1.5885 0.0885c-0.31019-0.0523-1.4532-5e-3 0 0zm0.40956-0.01c0.75096-5e-3 0.14918-0.0244 0 0z" fill="#1a1a1a" style="font-feature-settings:normal;font-variant-caps:normal;font-variant-ligatures:normal;font-variant-numeric:normal"/>
   <path d="m157.09 189.45c-6.7473 2.1148-17.95-2.5441-20.107 6.5503-5.1529 9.3967-8.6952 19.615-10.997 30.064-10.317 4.3528-12.676 0.0802-9.2921-9.4793 1.9171-10.867 4.7453-21.543 7.2166-32.291h-38.283c-0.4493 13.981 1.585 28.151 1.2287 41.961-6.9765-5.3957-16.752-10.004-22.133-15.846 5.7964-12.187-5.3623-25.8-18.148-25.227-13.65-1.739-26.33 12.687-20.678 25.814 1.3359 4.8645-4.0469 9.684-3.2295 15.124-0.92362 14.337 13.404 26.332 27.211 25.531 4.2973 5.147 15.757 1.9301 22.937 3.7118 23.347 1.6694 46.755 1.99 70.598 3.1899-6.5584-11.443 4.3766-7.8081 11.736-8.0059 8.6943-0.65069 15.613 0.66506 23.218 1.2947 10.747-0.16863 21.467 0.20139 32.143 1.4975-0.20578 8.4553 14.579 0.85124 20.946 2.2638 10.745 1.1226 6.8754-10.528 15.142-2.5406 18.107 7.3345 39.93 12.743 58.585 4.2009 4.8455-2.636 7.606-8.0327 14.047-5.8356 9.8734-0.37589 20.927 0.27764 30.101-0.7091 4.0528 3.261 15.807-0.52786 22.658 0.17157 10.372-0.40375 20.17-2.494 29.725 0.53152 10.801-0.15691 21.666-0.4106 32.599-0.58114-0.66081-3.2739 5.5615 1.545 7.8703 0.45947 4.4643 0.18819 9.0075-0.33238 13.206-1.9122 3.421 5.1109 16.405 0.60983 23.546 1.9823 7.415-1.1196 19.334 1.7951 24.117-1.6821-0.8621-8.7074-1.7246-17.415-2.5862-26.122-5.5263 2.051-5.3035-12.313-1.2536-13.084 10.517-0.13882 8.4794-8.8709 7.9782-16.549 3.344-12.555-6.0766-11.236-15.384-10.04-12.015 0.58592-24.029 1.1724-36.044 1.7577 0.79606 4.6476-5.56-0.24831-8.4625 0.81913-5.2587-0.16277-10.638 0.80916-15.284 3.3485 4.1419-11.867-12.226-3.9183-18.908-5.3281-11.559-2.2912-11.405 4.8748-19.071 6.0811-14.45 0.21312-27.41-5.1745-41.695-4.8459-3.1314-5.6169-16.42-0.19308-23.593-1.4182-9.1843 0.44774-18.369 0.89616-27.553 1.3436 1.8647 6.2194-1.7721 3.5531-5.1611 2.95-15.686-2.7385-31.81 12.745-26.854 28.692 1.3925 6.8663 5.0347 13.108 9.7216 18.251-5.7196-1.4861-15.188-0.43601-13.821-8.7335-1.8168-12.905 0.4189-25.915-0.0489-38.879-9.5597-4.0712-19.886-4.3963-30.106-4.198 5.923 10.652-6.3782 6.6383-1.2343-0.75276-26.068 3.1126-52.475 4.267-78.352-0.91322 0.58207 2.4611 1.1641 4.9222 1.7462 7.3833zm-147.61-5.7644c-13.43 0.65494-26.86 1.3105-40.29 1.9648 0.88698 4.5848-5.6154 0.57179-8.3989 1.7932-12.945 1.4528-25.616 2.339-38.842 3.426-2.3118 1.6225-3.7062 12.749-6.5614 6.6914-7.9322-11.46-25.363-11.883-34.987-2.4934-9.3993-8.6697-22.62-8.6818-34.365-10.425-6.2014-1.1902-12.575-0.52517-18.846-0.91044 3.9565 11.646-1.1346 3.7916-7.9256 3.9324-12.741 0.64878-24.471 2.4044-37.279 3.2046-6.312 10.961-11.116 22.8-13.723 35.195-9.0558 3.478-13.11 1.4284-9.5504-7.9748 1.9607-11.662 4.7983-22.121 7.4749-33.795h-38.283c0.13515 20.37 2.1357 40.521 0.59453 60.801-3.2764 11.134 3.4975 12.688 13.013 11.627 14.727 0.61065 29.453 1.2228 44.18 1.8307-6.5591-11.444 4.3765-7.8079 11.736-8.0059 8.462-0.2752 4.3352 11.388 17.005 5.8557 7.3516 0.0195 19.425-1.1226 18.174-5.9655 8.3816 1.5601 16.623 0.13148 24.13 4.5045 16.73 6.5068 36.975 10.152 53.787 2.0228 5.0475-2.2515 6.884-9.1687 13.463-6.755 8.077-0.51065 13.941 1.468 20.572 1.4948 8.0853-0.57341 16.171-1.1463 24.256-1.719 4.4331 3.8934 16.342 0.27764 23.549 1.3845 7.4151-1.1196 19.334 1.7951 24.117-1.6821-0.86212-8.7074-1.7246-17.415-2.5862-26.122-5.5263 2.051-5.3035-12.313-1.2536-13.084 10.517-0.13882 8.4795-8.8709 7.9782-16.549 0.33541-11.218 0.62677-11.728-11.139-10.247zm35.098 17.744c3.9192 8.2121-2.8864 11.614-6.4416 3.4478 0.15035-4.5293 2.2858-5.5911 6.4416-3.4478zm311.57 6.6278c-5.3561 7.8341-5.9995-3.9092-1.1061-1.1353l0.98874 1.0148zm-203.25 3.1769c-8.9422-2.2741-3.802-7.9977 0 0zm-357.73-5e-3c-8.9394-2.2708-3.79-7.9841 0 0zm139.97 0.01c-8.9398-2.2786-3.8036-7.9967 0 0zm27.77-3.7525c3.6603 4.0999-9.7671 9.3043-5.3576 2.2416 1.3881-1.4179 3.3704-2.2611 5.3576-2.2416zm87.531 17.332c4.9664 4.6391-11.993 1.0616-0.79975-0.0914zm35.986 11.714c-0.18222 4.081-0.21419 8.1665-0.21859 12.251-3.524-6.742-14.62-15.112-1.9171-18.368 4.975-5.1708 1.215 4.2205 2.1357 6.1167z" fill="#ccc" style="font-feature-settings:normal;font-variant-caps:normal;font-variant-ligatures:normal;font-variant-numeric:normal"/>
   <path d="m9.9969 194.29-30.239 1.475-0.26566 45.113 25.41-0.28497-0.59498-6.0079-16.61 0.68075-0.66138-13.206 12.771 0.28497-0.13286-9.0132-11.183 0.1134-0.99347-9.9182c8.8226-0.83121 13.632-1.3035 14.426-1.4168 3.132-0.49119 5.8895-1.1705 8.2716-2.0396zm332.01 0-30.239 1.475-0.26542 45.113 25.41-0.28497-0.59497-6.0079-16.61 0.68075-0.66135-13.206 12.771 0.28497-0.13295-9.0132-11.183 0.1134-0.99348-9.9182c8.8226-0.83121 13.632-1.3035 14.426-1.4168 3.132-0.49119 5.8894-1.1705 8.2716-2.0396zm154.57 0-30.239 1.475-0.26541 45.113 25.41-0.28497-0.59491-6.0079-16.61 0.68075-0.66144-13.206 12.771 0.28497-0.13296-9.0132-11.183 0.1134-0.99349-9.9182c8.8226-0.83121 13.632-1.3035 14.426-1.4168 3.132-0.49119 5.8895-1.1705 8.2716-2.0396zm-656.52 0.3402c0.39705 2.0403 0.66187 3.6846 0.79421 4.9314 0.17646 1.2091 0.26566 2.626 0.26566 4.2506 0 2.3426-0.11154 4.6837-0.33209 7.0262-0.22059 2.3048-0.53005 4.6108-0.92706 6.9156-1.9851-2.3426-3.9702-4.6865-5.9553-7.029-2.2939-2.6448-4.4324-4.8723-6.4175-6.6859-2.4703-2.3048-4.9629-4.2318-7.4773-5.7809l-6.4839 0.4536c0 1.927 0.10876 4.513 0.3293 7.7624 0.4411 6.5365 0.66139 10.787 0.66139 12.752 0 2.4937-0.10876 5.8377-0.32931 10.032-0.44114 8.4257-0.66138 13.942-0.66138 16.549l7.8731-0.67796 0.0664-1.702c-3e-5 -2.7582-0.15339-6.0263-0.46216-9.8047-0.30878-3.8161-0.61826-7.6323-0.92706-11.448-0.26464-3.8539-0.39574-7.2357-0.39574-10.145 3.3085 3.476 6.7909 8.0853 10.452 13.828 2.9555 4.9118 5.9333 9.8242 8.933 14.736l9.7272 0.51192c-1.2793-7.8211-2.0739-13.188-2.3827-16.098s-0.46216-5.781-0.46216-8.6147c0-1.738 0.15338-6.0441 0.46216-12.921 0.13232-2.9471 0.19928-5.5156 0.19928-7.707-2.338-0.75564-4.5211-1.1346-6.5503-1.1346zm407.74 0c0.39691 2.0403 0.66179 3.6846 0.79425 4.9314 0.17597 1.2091 0.26298 2.626 0.26298 4.2506 0 2.3426-0.10852 4.6837-0.32945 7.0262-0.22045 2.3048-0.53016 4.6108-0.92706 6.9156-1.9851-2.3426-3.9703-4.6865-5.9553-7.029-2.2939-2.6448-4.4324-4.8723-6.4175-6.6859-2.4703-2.3048-4.9629-4.2318-7.4773-5.7809l-6.4839 0.4536c0 1.927 0.10851 4.513 0.32945 7.7624 0.44139 6.5365 0.6614 10.787 0.6614 12.752 0 2.4937-0.10852 5.8377-0.32945 10.032-0.44139 8.4257-0.66135 13.942-0.66135 16.549l7.873-0.67796 0.0665-1.702c0-2.7582-0.15349-6.0263-0.46192-9.8047-0.30892-3.8161-0.61862-7.6323-0.92706-11.448-0.26444-3.8539-0.39837-7.2357-0.39837-10.145 3.3085 3.476 6.7937 8.0853 10.455 13.828 2.9555 4.9118 5.9333 9.8242 8.933 14.736l9.7272 0.51192c-1.2795-7.8211-2.0742-13.188-2.3826-16.098-0.30892-2.9093-0.46192-5.781-0.46192-8.6147 0-1.738 0.153-6.0441 0.46192-12.921 0.13246-2.9471 0.19943-5.5156 0.19943-7.707-2.338-0.75564-4.5212-1.1346-6.5504-1.1346zm173.07 0-9.6608 0.62269c0.48537 3.8917 0.83922 6.7836 1.0599 8.6728 0.3969 3.7405 0.66178 6.8368 0.7943 9.2927 0.17597 2.4181 0.26297 5.141 0.26297 8.1636 0 1.5869-0.19796 5.5899-0.59501 12.013-0.17597 2.8338-0.26542 5.2331-0.26542 7.1979l9.4643-0.16864c-0.79439-4.9118-1.3464-8.8796-1.6549-11.902-0.44139-4.194-0.6614-8.1617-0.6614-11.902 0-3.8917 0.087-7.4427 0.26298-10.654 0.22044-3.2494 0.55234-7.0277 0.99348-11.335zm-251.6 0.11341c0.8381 3.7784 2.2489 9.0669 4.234 15.868 2.0292 6.801 3.4427 11.789 4.2368 14.963 1.4998 6.0075 2.4923 11.223 2.9776 15.644l10.851 0.0552 1.8541-20.913 2.117 20.913 11.645 1.0765c0-7.7456 0.97027-15.737 2.9112-23.973 1.6322-6.9144 4.1471-14.678 7.5438-23.293l-11.977 1.0765c0 5.403-0.17548 10.219-0.52859 14.451-0.35291 4.2317-1.0387 8.5406-2.0533 12.923l-3.2405-27.148-11.778-0.2268-4.3669 27.942c-0.79415-3.2493-1.3239-6.6515-1.5884-10.203-0.22045-3.5517-0.3319-7.3855-0.3319-11.504v-5.8944zm-430.61 0.16863c0 2.6071 0.13109 5.9713 0.39573 10.09 0.57346 8.9546 0.86064 14.564 0.86064 16.831 0 1.0201-0.19797 6.0665-0.59498 15.135-0.13232 3.0227-0.19928 6.0256-0.19928 9.0104l32.754 1.3588-2.712-10.654-23.226 3.9684c0-4.7229 0.30946-9.7287 0.92706-15.018 0.66169-5.2897 1.4982-10.485 2.5127-15.586 0.79404-4.0428 1.9204-9.0892 3.3762-15.135zm357.73 0c0 2.6071 0.13393 5.9713 0.39837 10.09 0.57346 8.9546 0.85789 14.564 0.85789 16.831 0 1.0201-0.19796 6.0665-0.59502 15.135-0.13246 3.0227-0.1965 6.0256-0.1965 9.0104l32.751 1.3588-2.712-10.654-23.226 3.9684c0-4.7229 0.30941-9.7287 0.92706-15.018 0.66179-5.2897 1.501-10.485 2.5156-15.586 0.794-4.0428 1.9176-9.0892 3.3734-15.135zm-51.146 0.85232c-2.6027 0-4.9196 0.77269-6.9488 2.3218-1.9851 1.5114-2.9777 3.4005-2.9777 5.6675 0 1.5869 0.37364 3.2866 1.1235 5.1002 0.52936 1.2847 1.3909 2.891 2.5819 4.818-1.7645 2.1914-3.1335 4.3838-4.104 6.5752-1.1028 2.4937-1.6521 4.9485-1.6521 7.3666 0 3.2872 1.6088 6.3483 4.829 9.182 3.2202 2.8338 6.7723 4.2506 10.654 4.2506 1.7645 0 3.3091-0.39642 4.6325-1.1899 1.3675-0.79346 2.4688-1.8896 3.307-3.2876 0.97049 2.1159 1.7428 4.5152 2.3163 7.1979l11.711 0.79425-7.8731-11.958c0.30877-0.68011 0.94728-1.4177 1.9178-2.2111 0.61757-0.52898 2.1622-1.5697 4.6325-3.1188l-12.506-8.4432 0.13286 1.4169c0 0.94461-0.06687 1.9271-0.19928 2.9472-0.13232 0.98238-0.24386 1.7578-0.33209 2.3246-1.941-1.8514-3.5943-3.5918-4.9618-5.2164-1.6322-1.9648-2.9342-3.9094-3.9047-5.8363l5.2939-4.9868c1.7204-1.8892 2.5819-4.0436 2.5819-6.4617 0-2.3048-1.0149-4.0802-3.0441-5.3271-2.0292-1.2846-4.4326-1.9261-7.2117-1.9261zm308.33 0.56456c-2.8232 0-5.4497 0.13393-7.8759 0.39837 0 2.3804 0.0894 5.2141 0.26542 8.5013 0.22045 3.2493 0.44089 6.4972 0.66144 9.7466 0.22045 3.2493 0.32945 6.0452 0.32945 8.3878 0 2.5693-0.17548 5.2514-0.52859 8.0474-0.30892 2.796-0.7047 5.688-1.1899 8.6728h10.651l-2.4463-18.024c0.83815-0.52898 1.7415-0.79147 2.712-0.79147 2.1616 0 3.7508 1.8892 4.7654 5.6675 0.66164 2.4181 0.99065 5.0624 0.99065 7.934 0 1.209-0.0196 2.247-0.0665 3.116-0.044 0.86904-0.15299 1.8136-0.32945 2.8338l11.249-0.62263c-0.52907-3.5894-1.6111-7.426-3.2432-11.507-1.941-4.7985-4.0572-8.1776-6.3511-10.142 2.2057-0.37784 4.1462-1.4944 5.8225-3.3457 1.7204-1.8892 2.5792-3.7959 2.5792-5.7229 0-4.9874-1.6088-8.5032-4.829-10.544-2.735-1.738-7.1235-2.6068-13.167-2.6068zm-501.49 0.0582-0.32935 44.886c1.0146 0.22681 2.0295 0.37834 3.0441 0.45361 1.0587 0.0758 2.2046 0.1134 3.4398 0.1134 5.7788 0 10.346-1.2098 13.698-3.628 2.9997-2.1536 5.1159-5.2526 6.351-9.2955 1.0146-3.2871 1.522-7.4241 1.522-12.411 0-6.3098-2.8439-11.316-8.5345-15.018-5.2053-3.4005-11.604-5.1002-19.191-5.1002zm594.21 0.68075c-6.8816 0-11.911 2.586-15.088 7.7624-2.4262 3.9672-3.639 9.2004-3.639 15.699 0 4.6851 1.3243 9.0319 3.9712 13.037 3.132 4.7607 7.211 7.1397 12.24 7.1397 5.6023 0 9.9044-1.4724 12.904-4.4194 2.8232-2.796 4.234-6.6326 4.234-11.507-0.57346 0.0753-1.6106 0.20969-3.1105 0.39837-1.4998 0.18868-2.9775 0.28204-4.4332 0.28204 0.044 0.26444 0.0665 0.661 0.0665 1.19 0 2.7582-0.79459 5.1575-2.3826 7.1978-1.8086 2.3048-4.3011 3.4564-7.4774 3.4564-2.4703 0-4.3885-1.5657-5.756-4.7017-1.3234-3.1738-1.9842-7.6897-1.9842-13.546 0-5.2519 0.41841-9.2751 1.2564-12.071 1.4998-4.9874 4.3911-7.4829 8.6701-7.4829 2.4263 0 4.2553 0.64419 5.4904 1.9288 1.4557 1.5114 2.1834 4.1936 2.1834 8.0474l-0.0665 1.5303 7.4109-0.5673c0-3.7405-1.3216-6.895-3.9684-9.4643-2.6468-2.607-6.1542-3.9102-10.521-3.9102zm-483.73 0.96303c-3.3967 0-6.8596 0.41402-10.389 1.2453 0 2.3048 0.13388 5.4796 0.39847 9.5224 0.52936 8.1234 0.79422 13.394 0.79422 15.813 0 2.5693-0.13383 5.0823-0.39847 7.5382-0.26468 2.4181-0.68291 5.214-1.2564 8.3878l10.389-0.73608-2.8448-18.591c0.61758 0.37784 1.125 0.64312 1.522 0.79425 1.0146 0.41548 1.9626 0.62263 2.8448 0.62263 3.3967 0 6.2629-1.4723 8.6009-4.4194 2.0733-2.6448 3.1105-5.4407 3.1105-8.3878 0-3.8539-0.99258-6.7459-2.9777-8.6728-2.1174-2.0781-5.3823-3.116-9.7936-3.116zm-64.662 0.96304c-3.7496 0-7.0145 1.1516-9.7936 3.4564-2.7791 2.3048-4.1704 5.0249-4.1704 8.1609 0 4.7229 1.4777 9.2943 4.4333 13.715 1.5439 2.3048 4.3014 5.4417 8.2716 9.4089 2.9556 2.9471 4.4333 4.9499 4.4333 6.0079 0 2.3804-2.1608 4.1383-6.4839 5.2718-2.9997 0.79347-6.3064 1.19-9.9237 1.19-1.9851 0-4.171-0.28301-6.553-0.84958-2.3821-0.56676-4.674-1.1148-6.8796-1.6438l-3.5754 3.7968c3.3967 1.2468 6.9488 2.1156 10.654 2.6068 3.6614 0.49114 7.6317 0.73608 11.911 0.73608 5.3376 0 9.7708-0.7551 13.3-2.2664 4.5436-1.927 6.816-4.9298 6.816-9.0105 0-3.476-1.698-7.1231-5.0947-10.939-3.132-3.136-6.2436-6.2904-9.3315-9.4643-3.3526-3.7405-5.0282-7.3673-5.0282-10.881 0-1.738 0.35409-3.0995 1.0599-4.0818 0.88227-1.2091 2.2485-1.8126 4.1012-1.8126 1.8086 0 3.2863 0.9446 4.4333 2.8338 0.97048 1.5869 1.4556 3.2108 1.4556 4.8733l-0.06638 1.0212 7.5438-3.5726c-1.3234-2.3048-2.8457-4.194-4.5661-5.6675-2.2498-1.9269-4.5639-2.8891-6.946-2.8891zm395.2 0c-3.7495 0-7.0145 1.1516-9.7935 3.4564-2.7791 2.3048-4.1676 5.0249-4.1676 8.1609 0 4.7229 1.4777 9.2943 4.4333 13.715 1.5439 2.3048 4.3014 5.4417 8.2716 9.4089 2.9556 2.9471 4.4333 4.9499 4.4333 6.0079 0 2.3804-2.1609 4.1383-6.4839 5.2718-2.9996 0.79347-6.3092 1.19-9.9264 1.19-1.9851 0-4.1682-0.28301-6.5502-0.84958-2.3822-0.56676-4.6768-1.1148-6.8824-1.6438l-3.5726 3.7968c3.3967 1.2468 6.9488 2.1156 10.654 2.6068 3.6614 0.49114 7.6317 0.73608 11.911 0.73608 5.3376 0 9.7708-0.7551 13.3-2.2664 4.5436-1.927 6.8132-4.9298 6.8132-9.0105 0-3.476-1.698-7.1231-5.0946-10.939-3.132-3.136-6.2408-6.2904-9.3287-9.4643-3.3525-3.7405-5.0282-7.3673-5.0282-10.881 0-1.738 0.35145-3.0995 1.0571-4.0818 0.88223-1.2091 2.2513-1.8126 4.104-1.8126 1.8086 0 3.2863 0.9446 4.4333 2.8338 0.97046 1.5869 1.4556 3.2108 1.4556 4.8733l-0.0665 1.0212 7.5438-3.5726c-1.3234-2.3048-2.8457-4.194-4.5661-5.6675-2.2497-1.9269-4.5667-2.8891-6.9488-2.8891zm-248.85 0.28203c1.8527 0 3.021 0.49261 3.5062 1.475 0.04399 0.1134 0.24205 1.2853 0.59498 3.5145l0.19928 1.7545c0 0.56672-0.55204 1.211-1.6549 1.9288-0.17646 0.1134-1.0575 0.58567-2.6456 1.4169-0.88226-1.398-1.5235-2.5699-1.9205-3.5145-0.57346-1.3602-0.85787-2.6458-0.85787-3.8549 0-1.8136 0.92567-2.7203 2.7784-2.7203zm331.74 0c0 5.1763 0.44089 9.8059 1.3227 13.886 0.88229 4.0806 2.2708 8.2933 4.1676 12.638 1.4998 3.3627 3.7052 7.765 6.6167 13.206l12.506 1.0184c0.52907-3.1738 1.4355-7.6491 2.7148-13.43 1.5879-7.1411 2.5581-11.619 2.9112-13.433 1.0146-4.9874 1.7424-9.4275 2.1835-13.319l-10.521 1.0212-3.7719 34.514c-2.0292-4.5718-3.5738-8.3677-4.6325-11.39-1.4116-3.9672-2.4683-7.7835-3.1741-11.448-0.70577-3.7028-1.0599-7.5773-1.0599-11.62zm-574.84 0.68075-12.506 1.0212c-3.1761 5.7809-5.7775 12.072-7.8067 18.873-1.7645 5.932-3.2004 12.524-4.3032 19.778l7.4109-0.0552 2.9112-13.773 9.9264-0.73613 1.6549 14.847h9.2623c-1.191-5.7431-2.3816-12.373-3.5726-19.892-0.97048-5.9698-1.9631-12.658-2.9776-20.063zm139.96 0-12.506 1.0212c-3.1761 5.7809-5.7802 12.072-7.8094 18.873-1.7645 5.932-3.1976 12.524-4.3004 19.778l7.4109-0.0552 2.9112-13.773 9.9264-0.73613 1.6549 14.847h9.2623c-1.191-5.7431-2.3816-12.373-3.5726-19.892-0.97049-5.9698-1.9631-12.658-2.9777-20.063zm217.76 0-12.506 1.0212c-3.1761 5.7809-5.7802 12.072-7.8094 18.873-1.7645 5.932-3.1976 12.524-4.3004 19.778l7.4109-0.0552 2.9113-13.773 9.9264-0.73613 1.6521 14.847h9.265c-1.1911-5.7431-2.3816-12.373-3.5727-19.892-0.97046-5.9698-1.9631-12.658-2.9776-20.063zm194.95 0.9077c2.5586 0.34021 4.4991 1.1127 5.8224 2.3218 1.3675 1.209 2.0534 2.9115 2.0534 5.103 0 1.1713-0.17842 2.3987-0.53123 3.6833-0.48538 1.7381-1.2352 2.8518-2.2498 3.343-0.794 0.37784-2.3163 0.5673-4.5661 0.5673h-0.92447zm-394.25 3.0607c2.4262 0.3402 4.2803 1.0748 5.5596 2.2083 1.2793 1.1335 1.9178 2.7223 1.9178 4.7626 0 1.6624-0.26488 3.1552-0.79422 4.4776-0.74993 1.8136-1.8736 2.7203-3.3734 2.7203-1.1469 0-2.2706-0.20969-3.3734-0.62542zm-164.97 0.67801 0.79423 8.8416-5.626 0.3402 2.8476-7.9893zm139.96 0 0.79422 8.8416-5.626 0.3402 2.8448-7.9893zm217.76 0 0.7942 8.8416-5.6232 0.3402 2.8449-7.9893zm-289.6 0.28497c3.3084 0 5.8234 1.8892 7.5438 5.6675 1.2793 2.7959 1.9178 5.9328 1.9178 9.4089 0 4.2695-0.88106 7.631-2.6456 10.087-1.9851 2.796-5.25 4.7027-9.7936 5.7229l-2.2498-30.264c1.7204-0.41548 3.463-0.62263 5.2275-0.62263zm180.59 14.678c2.0292 1.8892 3.9474 3.8365 5.7561 5.8391 1.8086 1.9647 3.4648 4.0027 4.9646 6.1186-0.74992 0.98239-1.4358 1.7578-2.0534 2.3246-1.0587 0.98239-2.0067 1.475-2.8448 1.475-0.83814 0-1.7638-0.39642-2.7784-1.19-0.52935-0.41548-1.2125-1.0598-2.0506-1.9288-0.79405-0.90682-1.3238-1.9272-1.5884-3.0607-0.26468-1.1713-0.39847-2.4744-0.39847-3.9102 0-1.4735 0.04448-2.6834 0.13286-3.628 0.08818-0.98234 0.3754-1.6617 0.86064-2.0395z" fill="#1a1a1a" style="font-feature-settings:normal;font-variant-caps:normal;font-variant-ligatures:normal;font-variant-numeric:normal"/>
  </g>
 </g>
</svg>
